<svg width="92" height="23" viewBox="0 0 92 23" fill="none" xmlns="http://www.w3.org/2000/svg">
<g clip-path="url(#clip0_314_13122)">
<path fill-rule="evenodd" clip-rule="evenodd" d="M5.45184 2.03223V22.6572H0V2.03223H5.45184Z" fill="#F26CF9"/>
<path fill-rule="evenodd" clip-rule="evenodd" d="M8.17773 2.03223H19.7629C23.5267 2.03223 26.5777 5.11027 26.5777 8.90723C26.5777 12.7042 23.5267 15.7822 19.7629 15.7822H13.6296V22.6572H8.17773V2.03223ZM13.6296 10.2822H19.7629C20.5157 10.2822 21.1259 9.66661 21.1259 8.90723C21.1259 8.14784 20.5157 7.53223 19.7629 7.53223H13.6296V10.2822Z" fill="#F26CF9"/>
<path fill-rule="evenodd" clip-rule="evenodd" d="M47.0222 2.03223V12.6885C47.0222 15.1565 49.0053 17.1572 51.4518 17.1572C53.8982 17.1572 55.8815 15.1565 55.8815 12.6885V2.03223H61.3334V12.6885C61.3334 18.1941 56.9093 22.6572 51.4518 22.6572C45.9944 22.6572 41.5703 18.1941 41.5703 12.6885V2.03223H47.0222Z" fill="#F26CF9"/>
<path fill-rule="evenodd" clip-rule="evenodd" d="M28.6218 11.6572C28.6218 6.34148 32.8933 2.03223 38.1625 2.03223H39.5255V7.53223H38.1625C35.9042 7.53223 34.0736 9.37907 34.0736 11.6572V12.3447C34.0736 18.0401 29.497 22.6572 23.8514 22.6572H23.1699V17.1572H23.8514C26.486 17.1572 28.6218 15.0026 28.6218 12.3447V11.6572Z" fill="#F26CF9"/>
<path d="M92.0009 2.71973C92.0009 3.85882 91.0858 4.78223 89.9563 4.78223C88.8272 4.78223 87.9121 3.85882 87.9121 2.71973C87.9121 1.58064 88.8272 0.657227 89.9563 0.657227C91.0858 0.657227 92.0009 1.58064 92.0009 2.71973Z" fill="#F26CF9"/>
<path d="M67.187 22.6572L69.7885 11.6672L71.7227 18.2788C72.8757 22.2222 78.4126 22.2222 79.5661 18.2788L81.4998 11.6672L84.1013 22.6572H89.7063L85.6158 5.37593C84.643 1.2663 78.9025 1.11414 77.7169 5.16661L75.6444 12.253L73.5714 5.16662C72.3863 1.11417 66.6453 1.26628 65.6725 5.37593L61.582 22.6572H67.187Z" fill="#F26CF9"/>
</g>
<defs>
<clipPath id="clip0_314_13122">
<rect width="92" height="22" fill="white" transform="translate(0 0.657227)"/>
</clipPath>
</defs>
</svg>
