<svg width="115" height="22" viewBox="0 0 115 22" fill="none" xmlns="http://www.w3.org/2000/svg">
<g opacity="0.7" clip-path="url(#clip0_314_13121)">
<path d="M10.6969 21.1572C16.4207 21.1572 21.0605 16.4564 21.0605 10.6572V3.30723C21.0605 2.47179 20.733 1.67058 20.1499 1.07984C19.5668 0.489101 18.776 0.157227 17.9515 0.157227L11.2151 0.157227V4.76358C11.2151 5.81463 11.2783 6.90348 11.8224 7.79808C12.2119 8.43921 12.733 8.98796 13.3502 9.40709C13.9675 9.82623 14.6666 10.1059 15.3999 10.2273L15.5984 10.2598C15.6802 10.2881 15.7512 10.3417 15.8015 10.4129C15.8518 10.4842 15.8789 10.5696 15.8789 10.6572C15.8789 10.7448 15.8518 10.8302 15.8015 10.9015C15.7512 10.9728 15.6802 11.0263 15.5984 11.0547L15.3999 11.0872C14.3284 11.2645 13.3389 11.7784 12.5712 12.5562C11.8035 13.334 11.2963 14.3365 11.1213 15.4221L11.0892 15.6232C11.0612 15.7061 11.0083 15.7781 10.938 15.829C10.8677 15.88 10.7834 15.9074 10.6969 15.9074C10.6104 15.9074 10.5261 15.88 10.4558 15.829C10.3855 15.7781 10.3326 15.7061 10.3046 15.6232L10.2725 15.4221C10.1527 14.6791 9.87665 13.9709 9.46297 13.3455C9.04928 12.7201 8.50767 12.1922 7.87489 11.7975C6.9919 11.2463 5.91719 11.1822 4.87979 11.1822H0.345703C0.616712 16.7373 5.14718 21.1572 10.6969 21.1572Z" fill="#D3DAF9"/>
<path d="M0.333984 10.1322H4.88051C5.91791 10.1322 6.99262 10.0682 7.8756 9.51693C8.56583 9.08606 9.14686 8.49739 9.57213 7.79808C10.1162 6.90348 10.1794 5.81463 10.1794 4.76358V0.157227H3.44308C2.61849 0.157227 1.82768 0.489101 1.24462 1.07984C0.661548 1.67058 0.333984 2.47179 0.333984 3.30723L0.333984 10.1322ZM24.4061 1.20723C24.4061 1.4857 24.2969 1.75278 24.1026 1.94969C23.9082 2.1466 23.6446 2.25723 23.3698 2.25723C23.0949 2.25723 22.8313 2.1466 22.6369 1.94969C22.4426 1.75278 22.3334 1.4857 22.3334 1.20723C22.3334 0.928749 22.4426 0.661678 22.6369 0.464764C22.8313 0.267851 23.0949 0.157227 23.3698 0.157227C23.6446 0.157227 23.9082 0.267851 24.1026 0.464764C24.2969 0.661678 24.4061 0.928749 24.4061 1.20723ZM110.039 6.51183C112.936 6.51183 114.334 8.56195 114.334 10.9365V15.3964H111.302V11.4657C111.302 10.3895 110.914 9.50118 109.803 9.50118C108.691 9.50118 108.321 10.3895 108.321 11.4657V15.3959H105.289V11.4657C105.289 10.3895 104.919 9.50118 103.807 9.50118C102.695 9.50118 102.308 10.3895 102.308 11.4657V15.3959H99.2761V10.936C99.2761 8.56143 100.674 6.5113 103.571 6.5113C105.154 6.5113 106.3 7.1434 106.822 8.18553C107.377 7.1434 108.59 6.51078 110.039 6.51078V6.51183ZM93.828 12.6627C94.8047 12.6627 95.226 11.7571 95.226 10.6803V6.85308H98.2574V11.0562C98.2574 13.5678 96.8091 15.6526 93.828 15.6526C90.8464 15.6526 89.398 13.5684 89.398 11.0562V6.85308H92.4299V10.6803C92.4299 11.7566 92.8507 12.6627 93.828 12.6627ZM84.9401 15.6694C83.0368 15.6694 81.8072 15.0032 81.0828 13.7049L83.2726 12.4575C83.5758 13.004 84.0302 13.2775 84.7883 13.2775C85.4117 13.2775 85.6977 13.0554 85.6977 12.7819C85.6977 11.7398 81.2512 12.7992 81.2512 9.4849C81.2512 7.8784 82.5985 6.58008 84.8893 6.58008C86.8937 6.58008 87.9886 7.57075 88.4772 8.52783L86.2874 9.79203C86.1024 9.27963 85.5293 8.97198 84.9567 8.97198C84.5188 8.97198 84.2831 9.15993 84.2831 9.41613C84.2831 10.4756 88.7296 9.5017 88.7296 12.7137C88.7296 14.5076 86.9947 15.6694 84.9401 15.6694ZM74.3474 19.326H71.3156V11.1077C71.3156 8.49318 73.2525 6.59688 75.9476 6.59688C78.5753 6.59688 80.5796 8.6302 80.5796 11.1077C80.5796 13.8414 78.794 15.6526 76.116 15.6526C75.4926 15.6526 74.8698 15.4647 74.3474 15.1738V19.326ZM75.9476 12.7651C76.9078 12.7651 77.5477 12.0133 77.5477 11.1245C77.5477 10.2194 76.9078 9.48438 75.9476 9.48438C74.9874 9.48438 74.3474 10.2194 74.3474 11.125C74.3474 12.0133 74.9874 12.7651 75.9476 12.7651ZM68.2785 5.94798C67.2846 5.94798 66.4597 5.1106 66.4597 4.1026C66.4597 3.0946 67.2846 2.25723 68.2785 2.25723C69.2724 2.25723 70.0978 3.0946 70.0978 4.1026C70.0978 5.1106 69.2724 5.94798 68.2785 5.94798ZM66.7628 6.85308H69.7947V15.3964H66.7628V6.85308ZM60.9457 15.6526C58.318 15.6526 56.3137 13.6025 56.3137 11.1077C56.3137 8.6302 58.318 6.58008 60.9457 6.58008C63.5734 6.58008 65.5777 8.6302 65.5777 11.1077C65.5777 13.6025 63.5734 15.6526 60.9457 15.6526ZM60.9457 12.7651C61.9059 12.7651 62.5459 12.0133 62.5459 11.1245C62.5459 10.2194 61.9059 9.46758 60.9457 9.46758C59.9855 9.46758 59.3456 10.2194 59.3456 11.1245C59.3456 12.0133 59.9855 12.7651 60.9457 12.7651ZM50.5888 19.5822C48.5005 19.5822 46.9843 18.6425 46.2097 16.9677L48.7192 15.6012C48.9887 16.1823 49.4939 16.7803 50.538 16.7803C51.6335 16.7803 52.3574 16.0794 52.4418 14.8494C52.0376 15.2085 51.3972 15.4815 50.4375 15.4815C48.0958 15.4815 46.2091 13.6534 46.2091 11.0904C46.2091 8.6134 48.214 6.59688 50.8417 6.59688C53.5367 6.59688 55.4737 8.4937 55.4737 11.1077V14.4908C55.4737 17.5662 53.3678 19.5822 50.5888 19.5822ZM50.7909 12.5945C51.7003 12.5945 52.391 11.9619 52.391 11.0221C52.391 10.0997 51.7008 9.48438 50.7909 9.48438C49.8981 9.48438 49.1908 10.0997 49.1908 11.0226C49.1908 11.9624 49.8981 12.594 50.7909 12.594V12.5945ZM41.0667 15.6526C38.439 15.6526 36.4342 13.6025 36.4342 11.1077C36.4342 8.6302 38.439 6.58008 41.0667 6.58008C43.6939 6.58008 45.6987 8.6302 45.6987 11.1077C45.6987 13.6025 43.6944 15.6526 41.0667 15.6526ZM41.0667 12.7651C42.0269 12.7651 42.6668 12.0133 42.6668 11.1245C42.6668 10.2194 42.0269 9.46758 41.0667 9.46758C40.1065 9.46758 39.4666 10.2194 39.4666 11.1245C39.4666 12.0133 40.1065 12.7651 41.0667 12.7651ZM30.9134 3.86373V12.4916H35.9331V15.3964H30.4922C28.5723 15.3964 27.7976 14.3711 27.7976 12.7478V3.86373H30.9134Z" fill="#1C2346"/>
</g>
<defs>
<clipPath id="clip0_314_13121">
<rect width="114" height="21" fill="white" transform="translate(0.333984 0.157227)"/>
</clipPath>
</defs>
</svg>
