<svg xmlns="http://www.w3.org/2000/svg" xmlns:xlink="http://www.w3.org/1999/xlink" width="250" zoomAndPan="magnify" viewBox="0 0 187.5 187.499992" height="250" preserveAspectRatio="xMidYMid meet" version="1.0"><defs><clipPath id="36658e1613"><path d="M 45 45 L 147 45 L 147 147 L 45 147 Z M 45 45 " clip-rule="nonzero"/></clipPath><clipPath id="a7a4eb7a3c"><path d="M 36.914062 61.753906 L 61.773438 36.894531 L 150.101562 125.222656 L 125.242188 150.082031 Z M 36.914062 61.753906 " clip-rule="nonzero"/></clipPath><clipPath id="f3123ea3d1"><path d="M 36.914062 61.753906 L 61.773438 36.894531 L 150.101562 125.222656 L 125.242188 150.082031 Z M 36.914062 61.753906 " clip-rule="nonzero"/></clipPath><clipPath id="3870b80ac1"><path d="M 122 123 L 143 123 L 143 143 L 122 143 Z M 122 123 " clip-rule="nonzero"/></clipPath><clipPath id="41548cddc6"><path d="M 36.914062 61.753906 L 61.773438 36.894531 L 150.101562 125.222656 L 125.242188 150.082031 Z M 36.914062 61.753906 " clip-rule="nonzero"/></clipPath><clipPath id="627d099786"><path d="M 36.914062 61.753906 L 61.773438 36.894531 L 150.101562 125.222656 L 125.242188 150.082031 Z M 36.914062 61.753906 " clip-rule="nonzero"/></clipPath><clipPath id="f5af65da99"><path d="M 83 74 L 94 74 L 94 81 L 83 81 Z M 83 74 " clip-rule="nonzero"/></clipPath><clipPath id="d76490b783"><path d="M 36.914062 61.753906 L 61.773438 36.894531 L 150.101562 125.222656 L 125.242188 150.082031 Z M 36.914062 61.753906 " clip-rule="nonzero"/></clipPath><clipPath id="b03cdfd139"><path d="M 36.914062 61.753906 L 61.773438 36.894531 L 150.101562 125.222656 L 125.242188 150.082031 Z M 36.914062 61.753906 " clip-rule="nonzero"/></clipPath><clipPath id="7fcd6c6f4e"><path d="M 52 53 L 60 53 L 60 62 L 52 62 Z M 52 53 " clip-rule="nonzero"/></clipPath><clipPath id="a7760959aa"><path d="M 36.914062 61.753906 L 61.773438 36.894531 L 150.101562 125.222656 L 125.242188 150.082031 Z M 36.914062 61.753906 " clip-rule="nonzero"/></clipPath><clipPath id="33817d91d4"><path d="M 36.914062 61.753906 L 61.773438 36.894531 L 150.101562 125.222656 L 125.242188 150.082031 Z M 36.914062 61.753906 " clip-rule="nonzero"/></clipPath><clipPath id="39262a0bca"><path d="M 72 81 L 84 81 L 84 101 L 72 101 Z M 72 81 " clip-rule="nonzero"/></clipPath><clipPath id="a340012f43"><path d="M 36.914062 61.753906 L 61.773438 36.894531 L 150.101562 125.222656 L 125.242188 150.082031 Z M 36.914062 61.753906 " clip-rule="nonzero"/></clipPath><clipPath id="54ce639c80"><path d="M 36.914062 61.753906 L 61.773438 36.894531 L 150.101562 125.222656 L 125.242188 150.082031 Z M 36.914062 61.753906 " clip-rule="nonzero"/></clipPath><clipPath id="7ea7ee87b7"><path d="M 9.585938 9.585938 L 177.136719 9.585938 L 177.136719 177.136719 L 9.585938 177.136719 Z M 9.585938 9.585938 " clip-rule="nonzero"/></clipPath><clipPath id="b322443227"><path d="M 33 33 L 154 33 L 154 154 L 33 154 Z M 33 33 " clip-rule="nonzero"/></clipPath><clipPath id="56effda77b"><path d="M 148.835938 33.101562 L 154.125 38.390625 L 38.289062 154.222656 L 33 148.933594 Z M 148.835938 33.101562 " clip-rule="nonzero"/></clipPath><clipPath id="1a8fd4df1d"><path d="M 148.835938 33.101562 L 154.125 38.390625 L 38.289062 154.222656 L 33 148.933594 Z M 148.835938 33.101562 " clip-rule="nonzero"/></clipPath></defs><g clip-path="url(#36658e1613)"><g clip-path="url(#a7a4eb7a3c)"><g clip-path="url(#f3123ea3d1)"><path fill="#37437d" d="M 62.246094 52.195312 C 62.523438 51.402344 60.601562 50.734375 59.949219 50.40625 C 59.824219 50.40625 59.703125 50.378906 59.566406 50.320312 C 56.695312 53.585938 53.378906 56.515625 50.246094 59.550781 C 50.328125 59.699219 50.359375 59.855469 50.355469 60 C 50.667969 60.609375 51.277344 62.351562 52.011719 62.324219 C 54.511719 61.488281 56.546875 59.144531 58.234375 57.242188 C 59.457031 55.859375 61.148438 54.304688 62.195312 52.652344 C 62.175781 52.515625 62.1875 52.359375 62.246094 52.195312 Z M 59.082031 48.886719 C 59.160156 48.789062 59.222656 48.675781 59.292969 48.582031 C 58.761719 48.132812 58.210938 47.660156 57.589844 47.449219 C 57.578125 47.449219 57.578125 47.449219 57.566406 47.449219 C 55.378906 46.925781 52.4375 51.503906 50.980469 52.75 C 49.789062 53.777344 47.363281 55.304688 47.28125 57.078125 C 47.292969 57.117188 47.300781 57.152344 47.308594 57.199219 C 47.398438 58.015625 47.980469 58.691406 48.535156 59.339844 C 48.632812 59.269531 48.746094 59.207031 48.839844 59.128906 C 48.867188 59.113281 48.882812 59.101562 48.910156 59.089844 C 48.671875 58.738281 48.453125 58.425781 48.304688 58.277344 C 48.222656 58.195312 48.199219 58.148438 48.128906 58.136719 C 48.058594 58.128906 47.980469 58.128906 47.941406 58.09375 C 47.894531 58.058594 47.886719 57.984375 47.976562 57.863281 C 48.058594 57.730469 48.355469 57.675781 48.574219 57.769531 C 48.992188 57.929688 49.332031 58.296875 49.628906 58.71875 C 49.914062 58.441406 50.199219 58.167969 50.488281 57.894531 C 50.265625 57.636719 50.082031 57.421875 49.917969 57.246094 C 49.796875 57.125 49.6875 57.015625 49.605469 56.949219 C 49.542969 56.902344 49.5625 56.90625 49.542969 56.886719 C 49.535156 56.878906 49.515625 56.863281 49.496094 56.855469 C 49.335938 56.8125 49.273438 57.078125 49.164062 57.050781 C 49.113281 57.054688 49.066406 57.007812 49.035156 56.878906 C 49.019531 56.8125 49.015625 56.730469 49.050781 56.613281 C 49.066406 56.546875 49.09375 56.492188 49.144531 56.445312 C 49.183594 56.375 49.257812 56.355469 49.34375 56.320312 C 49.425781 56.308594 49.515625 56.300781 49.617188 56.328125 C 49.71875 56.363281 49.855469 56.398438 49.917969 56.445312 C 50.085938 56.53125 50.210938 56.628906 50.367188 56.757812 C 50.566406 56.925781 50.785156 57.15625 51 57.402344 C 51.320312 57.101562 51.628906 56.804688 51.949219 56.5 C 51.683594 56.1875 51.359375 55.921875 51.121094 55.789062 C 51.054688 55.753906 50.996094 55.734375 50.941406 55.707031 C 50.925781 55.695312 50.90625 55.6875 50.894531 55.6875 C 50.859375 55.695312 50.832031 55.695312 50.808594 55.777344 C 50.757812 55.929688 50.738281 56.105469 50.714844 56.207031 C 50.6875 56.300781 50.652344 56.363281 50.601562 56.371094 C 50.550781 56.382812 50.5 56.34375 50.4375 56.25 C 50.382812 56.144531 50.300781 55.992188 50.3125 55.683594 C 50.304688 55.542969 50.386719 55.257812 50.640625 55.136719 C 50.773438 55.074219 50.917969 55.074219 51.070312 55.089844 C 51.1875 55.109375 51.304688 55.140625 51.410156 55.195312 C 51.773438 55.367188 52.121094 55.605469 52.46875 56.011719 C 52.808594 55.695312 53.140625 55.378906 53.480469 55.058594 C 53.371094 54.9375 53.285156 54.824219 53.1875 54.726562 C 53.011719 54.523438 52.847656 54.363281 52.710938 54.261719 C 52.566406 54.175781 52.496094 54.15625 52.378906 54.175781 C 52.285156 54.1875 52.203125 54.226562 52.152344 54.289062 C 51.925781 54.542969 52.101562 54.773438 52.003906 54.839844 C 51.964844 54.875 51.90625 54.871094 51.78125 54.773438 C 51.683594 54.667969 51.535156 54.382812 51.71875 54.023438 C 51.792969 53.847656 51.976562 53.675781 52.222656 53.597656 C 52.449219 53.496094 52.816406 53.546875 53.058594 53.699219 C 53.300781 53.84375 53.503906 54.042969 53.707031 54.25 C 53.804688 54.347656 53.898438 54.464844 54 54.566406 C 54.335938 54.242188 54.675781 53.910156 55.007812 53.589844 C 54.867188 53.417969 54.667969 53.191406 54.554688 53.058594 C 54.367188 52.839844 54.222656 52.71875 54.101562 52.65625 C 53.804688 52.546875 53.679688 52.667969 53.632812 52.882812 C 53.585938 53.308594 53.792969 53.527344 53.699219 53.601562 C 53.667969 53.644531 53.59375 53.628906 53.460938 53.539062 C 53.332031 53.453125 53.15625 53.246094 53.121094 52.855469 C 53.117188 52.753906 53.105469 52.640625 53.15625 52.523438 C 53.183594 52.390625 53.257812 52.261719 53.367188 52.152344 C 53.628906 51.949219 53.933594 51.859375 54.292969 51.984375 C 54.847656 52.226562 55.132812 52.660156 55.515625 53.101562 C 55.804688 52.816406 56.089844 52.519531 56.375 52.234375 C 56.152344 52.023438 55.761719 51.671875 55.554688 51.519531 C 55.402344 51.40625 55.363281 51.4375 55.273438 51.398438 C 55.214844 51.367188 55.199219 51.367188 55.15625 51.386719 C 55.125 51.390625 55.097656 51.480469 55.070312 51.550781 C 55.03125 51.621094 55.03125 51.699219 55.015625 51.746094 C 54.972656 51.851562 54.925781 51.898438 54.875 51.910156 C 54.828125 51.910156 54.777344 51.867188 54.726562 51.75 C 54.703125 51.6875 54.660156 51.617188 54.65625 51.503906 C 54.644531 51.398438 54.621094 51.265625 54.722656 51.050781 C 54.824219 50.871094 55.066406 50.695312 55.335938 50.765625 C 55.574219 50.804688 55.71875 50.847656 55.917969 50.964844 C 56.195312 51.125 56.628906 51.503906 56.882812 51.726562 C 57.148438 51.449219 57.40625 51.175781 57.664062 50.894531 C 57.5625 50.8125 57.449219 50.730469 57.355469 50.664062 C 57.15625 50.53125 56.976562 50.421875 56.808594 50.332031 C 56.648438 50.246094 56.5 50.191406 56.40625 50.160156 C 56.378906 50.148438 56.335938 50.132812 56.304688 50.164062 C 56.242188 50.199219 56.246094 50.375 56.234375 50.484375 C 56.226562 50.585938 56.191406 50.652344 56.148438 50.667969 C 56.101562 50.6875 56.042969 50.65625 55.96875 50.558594 C 55.9375 50.503906 55.878906 50.464844 55.855469 50.34375 C 55.839844 50.277344 55.824219 50.21875 55.8125 50.144531 C 55.804688 50.070312 55.835938 49.972656 55.851562 49.882812 C 55.925781 49.6875 56.15625 49.554688 56.449219 49.566406 C 56.675781 49.589844 56.882812 49.640625 57.09375 49.734375 C 57.296875 49.816406 57.511719 49.929688 57.742188 50.070312 C 57.875 50.171875 58.011719 50.257812 58.152344 50.367188 C 58.378906 50.121094 58.597656 49.875 58.820312 49.621094 C 58.75 49.574219 58.691406 49.519531 58.625 49.476562 C 58.425781 49.3125 58.234375 49.171875 58.070312 49.066406 C 57.734375 48.84375 57.585938 48.832031 57.457031 48.894531 C 57.351562 48.929688 57.351562 49.050781 57.34375 49.152344 C 57.363281 49.25 57.351562 49.324219 57.3125 49.351562 C 57.277344 49.386719 57.210938 49.375 57.097656 49.28125 C 57.050781 49.226562 56.984375 49.160156 56.964844 49.015625 C 56.925781 48.882812 56.964844 48.675781 57.113281 48.523438 C 57.261719 48.382812 57.433594 48.257812 57.707031 48.277344 C 57.855469 48.273438 57.96875 48.308594 58.074219 48.34375 C 58.203125 48.378906 58.292969 48.4375 58.410156 48.496094 C 58.625 48.605469 58.832031 48.75 59.054688 48.914062 C 59.054688 48.914062 59.0625 48.917969 59.066406 48.921875 C 59.074219 48.90625 59.074219 48.894531 59.082031 48.886719 Z M 75.515625 64.519531 C 74.699219 63.863281 73.882812 63.207031 73.074219 62.558594 C 69.519531 59.71875 66.304688 56.507812 62.808594 53.609375 C 61.46875 55.632812 59.378906 57.609375 57.808594 59.207031 C 56.53125 60.511719 55.148438 61.914062 53.503906 62.785156 C 57.070312 67.125 60.71875 71.457031 64.464844 75.6875 C 68.609375 72.421875 72.714844 69.050781 75.515625 64.519531 Z M 140.359375 118.882812 C 140.027344 118.535156 139.6875 118.207031 139.351562 117.863281 C 136.734375 121.816406 132.511719 125.027344 129.097656 128.226562 C 125.179688 131.910156 121.226562 135.546875 117.285156 139.195312 C 119.867188 142.023438 123.097656 145.035156 125.949219 144.410156 C 126.003906 144.394531 126.050781 144.390625 126.105469 144.390625 C 129.511719 141.992188 132.371094 138.832031 135.367188 135.949219 C 138.527344 132.910156 142.207031 129.625 144.390625 125.765625 C 144.796875 123.058594 142.027344 120.597656 140.359375 118.882812 Z M 107.4375 85.675781 C 106.6875 84.964844 105.921875 84.257812 105.148438 83.574219 C 103.546875 82.136719 101.875 80.660156 99.957031 79.636719 C 97.824219 78.511719 95.894531 78.355469 93.613281 77.816406 C 89.695312 76.882812 86.824219 75.089844 84.0625 72.175781 C 81.675781 69.640625 79.023438 67.371094 76.316406 65.171875 C 73.464844 69.730469 69.335938 73.148438 65.140625 76.449219 C 67.726562 79.363281 70.359375 82.214844 73.042969 84.992188 C 75.722656 87.777344 77.414062 90.925781 77.976562 94.789062 C 78.574219 98.976562 80.695312 102.125 83.527344 105.195312 C 84.242188 105.976562 84.972656 106.746094 85.703125 107.515625 C 90.105469 104.121094 94.179688 100.347656 98.035156 96.34375 C 101.304688 92.960938 104.816406 89.601562 107.4375 85.675781 Z M 124.582031 103.074219 C 119.125 97.550781 113.835938 91.746094 108.195312 86.386719 C 105.296875 90.671875 101.453125 94.378906 97.828125 98.03125 C 94.21875 101.671875 90.453125 105.113281 86.410156 108.253906 C 92.09375 114.167969 98.125 119.785156 103.949219 125.542969 C 107.363281 128.917969 110.796875 132.273438 114.144531 135.710938 C 114.8125 136.394531 115.648438 137.378906 116.59375 138.4375 C 120.527344 134.792969 124.480469 131.179688 128.371094 127.503906 C 131.761719 124.304688 136.070312 121.082031 138.609375 117.117188 C 137.320312 115.832031 136.019531 114.554688 134.710938 113.273438 C 131.28125 109.921875 127.949219 106.480469 124.582031 103.074219 Z M 109.742188 85.113281 C 117.382812 92.703125 124.871094 100.445312 132.433594 108.109375 C 136.136719 111.863281 140.128906 115.394531 143.605469 119.371094 C 145.339844 121.34375 146.941406 123.800781 146.34375 126.523438 C 146.277344 126.785156 146.152344 126.976562 145.980469 127.09375 C 143.691406 130.980469 140.039062 134.324219 136.816406 137.402344 C 133.597656 140.472656 130.574219 143.796875 126.902344 146.332031 C 126.613281 146.53125 126.328125 146.546875 126.089844 146.453125 C 123.066406 146.898438 120.4375 144.734375 118.34375 142.773438 C 114.496094 139.148438 110.894531 135.28125 107.132812 131.574219 C 99.78125 124.316406 92.277344 117.1875 85.0625 109.792969 C 82.28125 106.941406 79.03125 103.859375 77.363281 100.171875 C 75.421875 95.886719 75.960938 90.984375 72.460938 87.355469 C 65.398438 80.035156 58.648438 72.257812 52.183594 64.398438 C 50.550781 64.636719 49.605469 62.957031 48.882812 61.582031 C 48.855469 61.59375 48.84375 61.609375 48.828125 61.621094 C 48.355469 61.925781 47.6875 61.703125 47.421875 61.234375 C 47.417969 61.21875 47.417969 61.203125 47.40625 61.179688 C 47.398438 61.171875 47.390625 61.164062 47.382812 61.15625 C 46.585938 59.980469 45.6875 59.121094 45.359375 57.785156 C 45.296875 57.667969 45.25 57.53125 45.234375 57.382812 C 44.917969 54.507812 48.097656 52.710938 49.863281 50.992188 C 51.636719 49.277344 53.84375 45.960938 56.535156 45.441406 C 56.691406 45.335938 56.894531 45.28125 57.148438 45.300781 C 57.371094 45.324219 57.574219 45.363281 57.769531 45.417969 C 57.878906 45.425781 57.984375 45.433594 58.09375 45.460938 C 58.289062 45.507812 58.433594 45.597656 58.550781 45.703125 C 59.457031 46.128906 60.183594 46.804688 61.109375 47.429688 C 61.117188 47.4375 61.125 47.445312 61.132812 47.453125 C 61.152344 47.464844 61.171875 47.464844 61.1875 47.464844 C 61.652344 47.734375 61.878906 48.402344 61.574219 48.871094 C 61.5625 48.890625 61.542969 48.910156 61.535156 48.929688 C 62.90625 49.65625 64.585938 50.601562 64.351562 52.238281 C 68.515625 55.679688 72.445312 59.386719 76.632812 62.816406 C 78.714844 64.523438 80.890625 66.1875 82.851562 68.039062 C 84.851562 69.925781 86.652344 72.503906 89.058594 73.878906 C 92.824219 76.03125 97.277344 75.636719 100.972656 77.859375 C 104.242188 79.820312 107.046875 82.4375 109.742188 85.113281 " fill-opacity="1" fill-rule="nonzero"/></g></g></g><g clip-path="url(#3870b80ac1)"><g clip-path="url(#41548cddc6)"><g clip-path="url(#627d099786)"><path fill="#37437d" d="M 142.28125 123.636719 C 142.351562 123.707031 142.4375 123.808594 142.542969 123.917969 C 142.605469 124.054688 142.695312 124.21875 142.785156 124.402344 C 142.90625 124.78125 142.9375 125.367188 142.675781 125.890625 C 142.433594 126.421875 142.121094 126.910156 141.742188 127.472656 C 140.929688 128.527344 140.011719 129.84375 138.792969 131.105469 C 137.625 132.421875 136.238281 133.730469 134.8125 135.152344 C 134.09375 135.859375 133.375 136.523438 132.75 137.191406 C 132.105469 137.875 131.484375 138.554688 130.863281 139.175781 C 129.621094 140.425781 128.378906 141.484375 127.128906 142.105469 C 126.507812 142.410156 125.875 142.597656 125.292969 142.628906 C 124.722656 142.65625 124.21875 142.519531 123.867188 142.339844 C 123.148438 141.953125 122.953125 141.574219 122.984375 141.527344 C 123.042969 141.453125 123.386719 141.726562 124.03125 141.921875 C 124.355469 142.015625 124.769531 142.0625 125.230469 141.984375 C 125.691406 141.90625 126.210938 141.699219 126.742188 141.386719 C 127.808594 140.75 128.933594 139.695312 130.09375 138.441406 C 130.679688 137.792969 131.28125 137.121094 131.914062 136.417969 C 132.566406 135.699219 133.296875 135.035156 134.003906 134.324219 C 135.421875 132.910156 136.839844 131.617188 138.023438 130.375 C 139.269531 129.171875 140.203125 127.953125 141.082031 126.988281 C 141.484375 126.496094 141.859375 126.011719 142.09375 125.613281 C 142.355469 125.203125 142.367188 124.835938 142.351562 124.511719 C 142.304688 124.355469 142.265625 124.210938 142.238281 124.082031 C 142.179688 123.960938 142.125 123.859375 142.089844 123.773438 C 142.019531 123.597656 141.984375 123.488281 142.015625 123.464844 C 142.046875 123.445312 142.140625 123.496094 142.28125 123.636719 " fill-opacity="1" fill-rule="nonzero"/></g></g></g><g clip-path="url(#f5af65da99)"><g clip-path="url(#d76490b783)"><g clip-path="url(#b03cdfd139)"><path fill="#37437d" d="M 92.148438 79.664062 C 93.207031 79.996094 93.757812 80.484375 93.675781 80.605469 C 93.585938 80.761719 92.988281 80.566406 91.976562 80.464844 C 91.472656 80.40625 90.855469 80.371094 90.136719 80.257812 C 89.414062 80.136719 88.550781 79.910156 87.828125 79.445312 C 86.359375 78.527344 85.398438 77.339844 84.761719 76.484375 C 84.148438 75.617188 83.847656 75.03125 83.957031 74.921875 C 84.082031 74.8125 84.613281 75.234375 85.375 75.945312 C 86.144531 76.648438 87.15625 77.667969 88.433594 78.457031 C 89.0625 78.867188 89.714844 79.042969 90.347656 79.214844 C 90.992188 79.378906 91.628906 79.5 92.148438 79.664062 " fill-opacity="1" fill-rule="nonzero"/></g></g></g><g clip-path="url(#7fcd6c6f4e)"><g clip-path="url(#a7760959aa)"><g clip-path="url(#33817d91d4)"><path fill="#37437d" d="M 59.75 53.453125 C 59.914062 53.5625 58.609375 55.644531 56.460938 57.738281 C 54.296875 59.796875 52.339844 61.15625 52.191406 61.011719 C 52.03125 60.832031 53.785156 59.167969 55.902344 57.152344 C 58.003906 55.101562 59.542969 53.316406 59.75 53.453125 " fill-opacity="1" fill-rule="nonzero"/></g></g></g><g clip-path="url(#39262a0bca)"><g clip-path="url(#a340012f43)"><g clip-path="url(#54ce639c80)"><path fill="#37437d" d="M 75.441406 83.890625 C 75.800781 84.246094 76.222656 84.601562 76.621094 85.042969 C 76.824219 85.269531 77.03125 85.492188 77.253906 85.726562 C 77.453125 85.980469 77.65625 86.242188 77.871094 86.511719 C 78.089844 86.773438 78.269531 87.082031 78.453125 87.390625 C 78.632812 87.703125 78.855469 87.996094 78.992188 88.371094 C 79.144531 88.730469 79.300781 89.09375 79.453125 89.46875 C 79.539062 89.828125 79.628906 90.191406 79.726562 90.558594 L 79.789062 90.835938 L 79.855469 91.152344 L 79.957031 91.691406 C 80.023438 92.042969 80.089844 92.390625 80.179688 92.726562 C 80.328125 93.40625 80.539062 94.050781 80.726562 94.667969 C 81.144531 95.886719 81.574219 96.972656 81.960938 97.890625 C 82.71875 99.722656 83.136719 100.898438 82.992188 100.964844 C 82.847656 101.035156 82.167969 100 81.214844 98.242188 C 80.734375 97.359375 80.214844 96.269531 79.726562 95.015625 C 79.496094 94.386719 79.261719 93.722656 79.082031 93.003906 C 78.976562 92.65625 78.898438 92.285156 78.828125 91.910156 L 78.71875 91.351562 L 78.691406 91.207031 L 78.683594 91.136719 L 78.675781 91.132812 L 78.675781 91.117188 L 78.605469 90.839844 C 78.027344 87.929688 76.148438 85.960938 74.859375 84.460938 C 73.535156 82.988281 72.753906 82.007812 72.871094 81.890625 C 72.988281 81.789062 73.949219 82.546875 75.441406 83.890625 " fill-opacity="1" fill-rule="nonzero"/></g></g></g><g clip-path="url(#7ea7ee87b7)"><path fill="#f26cf9" d="M 93.496094 9.585938 C 47.179688 9.585938 9.585938 47.179688 9.585938 93.496094 C 9.585938 139.8125 47.179688 177.40625 93.496094 177.40625 C 139.8125 177.40625 177.40625 139.8125 177.40625 93.496094 C 177.40625 47.179688 139.8125 9.585938 93.496094 9.585938 Z M 93.496094 14.246094 C 137.292969 14.246094 172.746094 49.699219 172.746094 93.496094 C 172.746094 137.292969 137.292969 172.746094 93.496094 172.746094 C 49.699219 172.746094 14.246094 137.292969 14.246094 93.496094 C 14.246094 49.699219 49.699219 14.246094 93.496094 14.246094 Z M 93.496094 14.246094 " fill-opacity="1" fill-rule="nonzero"/></g><g clip-path="url(#b322443227)"><g clip-path="url(#56effda77b)"><g clip-path="url(#1a8fd4df1d)"><path fill="#f26cf9" d="M 148.847656 33.113281 L 33.113281 148.847656 L 38.144531 153.878906 L 153.878906 38.144531 Z M 148.847656 33.113281 " fill-opacity="1" fill-rule="nonzero"/></g></g></g></svg>