<svg xmlns="http://www.w3.org/2000/svg" xmlns:xlink="http://www.w3.org/1999/xlink" width="250" zoomAndPan="magnify" viewBox="0 0 187.5 187.499992" height="250" preserveAspectRatio="xMidYMid meet" version="1.0"><defs><clipPath id="c5608e5cf0"><path d="M 43.078125 44 L 144 44 L 144 143.382812 L 43.078125 143.382812 Z M 43.078125 44 " clip-rule="nonzero"/></clipPath><clipPath id="effbeb67e3"><path d="M 9.585938 9.585938 L 177.136719 9.585938 L 177.136719 177.136719 L 9.585938 177.136719 Z M 9.585938 9.585938 " clip-rule="nonzero"/></clipPath><clipPath id="444f1092aa"><path d="M 33 33 L 154 33 L 154 154 L 33 154 Z M 33 33 " clip-rule="nonzero"/></clipPath><clipPath id="f9381228e6"><path d="M 148.835938 33.101562 L 154.125 38.390625 L 38.289062 154.222656 L 33 148.933594 Z M 148.835938 33.101562 " clip-rule="nonzero"/></clipPath><clipPath id="6101dc91f0"><path d="M 148.835938 33.101562 L 154.125 38.390625 L 38.289062 154.222656 L 33 148.933594 Z M 148.835938 33.101562 " clip-rule="nonzero"/></clipPath></defs><g clip-path="url(#c5608e5cf0)"><path fill="#37437d" d="M 142.078125 78.058594 L 112.304688 78.058594 L 101.804688 47.03125 C 101.335938 45.464844 99.769531 44.371094 98.199219 44.371094 C 97.730469 44.371094 97.417969 44.371094 96.949219 44.527344 C 96.007812 44.839844 95.222656 45.621094 94.753906 46.5625 C 94.285156 47.503906 94.285156 48.601562 94.597656 49.539062 L 104.15625 78.058594 L 82.84375 78.058594 L 92.558594 49.539062 C 92.875 48.601562 92.875 47.503906 92.402344 46.5625 C 91.933594 45.621094 91.148438 44.996094 90.210938 44.527344 C 88.171875 43.898438 85.976562 44.996094 85.351562 46.875 L 74.695312 78.058594 L 44.921875 78.058594 C 43.355469 78.058594 43.355469 79.628906 43.355469 80.410156 L 43.355469 84.953125 C 43.355469 85.738281 43.980469 86.523438 44.921875 86.523438 C 45.390625 86.523438 45.707031 86.367188 46.019531 86.050781 L 52.757812 118.960938 L 52.757812 119.273438 L 57.300781 140.898438 C 57.457031 141.839844 58.085938 142.308594 58.867188 142.308594 L 68.113281 142.308594 C 68.425781 142.777344 68.898438 143.089844 69.523438 143.089844 L 69.679688 143.089844 C 70.152344 143.089844 70.621094 142.777344 70.777344 142.308594 L 79.867188 142.308594 C 80.179688 142.777344 80.648438 143.089844 81.277344 143.089844 L 81.433594 143.089844 C 81.902344 143.089844 82.375 142.777344 82.6875 142.308594 L 104.625 142.308594 C 104.9375 142.777344 105.253906 143.089844 105.878906 143.089844 L 106.035156 143.089844 C 106.664062 143.089844 107.132812 142.777344 107.445312 142.308594 L 116.535156 142.308594 C 116.691406 142.777344 117.160156 143.089844 117.632812 143.089844 L 117.789062 143.089844 C 118.414062 143.089844 118.886719 142.777344 119.199219 142.308594 L 127.972656 142.308594 C 128.757812 142.308594 129.382812 141.839844 129.542969 141.054688 L 134.085938 119.585938 C 134.242188 119.429688 134.242188 119.117188 134.242188 118.800781 L 134.242188 118.644531 L 140.980469 86.050781 C 141.292969 86.367188 141.609375 86.523438 142.078125 86.523438 C 142.859375 86.523438 143.644531 85.738281 143.644531 84.953125 L 143.644531 80.410156 C 143.644531 79.628906 143.644531 78.058594 142.078125 78.058594 Z M 140.511719 81.195312 L 140.511719 82.761719 L 114.027344 82.761719 L 113.558594 81.195312 Z M 136.28125 93.730469 L 125.9375 93.730469 L 127.035156 86.207031 L 127.035156 85.894531 L 138.003906 85.894531 Z M 133.617188 106.265625 L 124.058594 106.265625 L 125.308594 96.863281 L 135.496094 96.863281 Z M 131.265625 117.234375 L 122.488281 117.234375 L 123.585938 109.402344 L 132.832031 109.402344 Z M 129.070312 128.203125 L 121.078125 128.203125 L 122.175781 120.371094 L 130.796875 120.371094 Z M 56.203125 120.371094 L 64.824219 120.371094 L 65.921875 128.203125 L 57.929688 128.203125 Z M 72.972656 85.894531 C 72.972656 86.050781 72.972656 86.050781 73.128906 86.207031 C 73.597656 86.992188 74.226562 87.777344 75.164062 88.089844 L 75.636719 93.730469 L 64.351562 93.730469 L 63.257812 85.894531 Z M 123.742188 85.894531 L 122.648438 93.730469 L 111.363281 93.730469 L 111.835938 88.089844 C 112.773438 87.777344 113.558594 87.148438 113.871094 86.207031 C 113.871094 86.050781 113.871094 86.050781 114.027344 85.894531 Z M 66.546875 109.402344 L 76.890625 109.402344 L 77.515625 117.234375 L 67.488281 117.234375 Z M 64.351562 117.234375 L 55.578125 117.234375 L 54.011719 109.402344 L 63.257812 109.402344 Z M 91.933594 106.265625 L 79.710938 106.265625 L 78.925781 96.863281 L 91.933594 96.863281 Z M 95.066406 96.863281 L 107.917969 96.863281 L 107.132812 106.265625 L 95.066406 106.265625 Z M 76.574219 106.265625 L 65.921875 106.265625 L 64.667969 96.863281 L 75.792969 96.863281 Z M 80.023438 109.402344 L 91.933594 109.402344 L 91.933594 117.234375 L 80.648438 117.234375 Z M 91.933594 120.371094 L 91.933594 128.203125 L 81.589844 128.203125 L 80.964844 120.371094 Z M 95.066406 120.371094 L 106.035156 120.371094 L 105.410156 128.203125 L 95.066406 128.203125 Z M 95.066406 117.234375 L 95.066406 109.402344 L 106.976562 109.402344 L 106.347656 117.234375 Z M 110.109375 109.402344 L 120.453125 109.402344 L 119.355469 117.234375 L 109.328125 117.234375 Z M 110.265625 106.265625 L 111.050781 96.863281 L 122.175781 96.863281 L 120.921875 106.265625 Z M 106.820312 85.894531 C 107.132812 86.835938 107.917969 87.460938 108.699219 87.933594 L 108.230469 93.730469 L 95.066406 93.730469 L 95.066406 85.894531 Z M 91.933594 93.730469 L 78.769531 93.730469 L 78.300781 87.933594 C 79.238281 87.460938 79.867188 86.835938 80.179688 85.894531 L 91.933594 85.894531 Z M 61.0625 93.730469 L 50.71875 93.730469 L 49.152344 85.894531 L 60.121094 85.894531 L 60.121094 86.207031 Z M 61.53125 96.863281 L 62.785156 106.265625 L 53.382812 106.265625 L 51.503906 96.863281 Z M 67.957031 120.371094 L 77.828125 120.371094 L 78.457031 128.203125 L 69.054688 128.203125 Z M 78.769531 131.339844 L 79.398438 139.175781 L 70.621094 139.175781 L 69.523438 131.339844 Z M 81.902344 131.339844 L 91.933594 131.339844 L 91.933594 139.175781 L 82.53125 139.175781 Z M 95.066406 131.339844 L 105.097656 131.339844 L 104.46875 139.175781 L 95.066406 139.175781 Z M 108.230469 131.339844 L 117.476562 131.339844 L 116.378906 139.175781 L 107.601562 139.175781 Z M 108.386719 128.203125 L 109.011719 120.371094 L 118.730469 120.371094 L 117.632812 128.203125 Z M 97.417969 47.972656 C 97.417969 47.816406 97.574219 47.660156 97.886719 47.660156 L 98.199219 47.660156 C 98.515625 47.660156 98.828125 47.816406 98.984375 48.128906 L 111.050781 83.703125 C 110.894531 83.859375 110.738281 84.015625 110.738281 84.328125 C 110.738281 84.640625 110.894531 84.796875 110.894531 85.113281 L 110.738281 85.269531 C 110.421875 85.425781 109.953125 85.269531 109.796875 84.796875 L 97.417969 48.445312 C 97.261719 48.285156 97.417969 47.972656 97.417969 47.972656 Z M 105.253906 81.195312 L 105.722656 82.761719 L 81.277344 82.761719 L 81.746094 81.195312 Z M 88.171875 47.972656 C 88.328125 47.660156 88.640625 47.503906 88.800781 47.503906 L 89.113281 47.503906 C 89.425781 47.660156 89.425781 47.816406 89.582031 47.816406 C 89.582031 47.972656 89.738281 48.128906 89.582031 48.445312 L 77.203125 84.640625 C 77.046875 85.113281 76.574219 85.269531 76.261719 85.113281 C 76.105469 85.113281 76.105469 84.953125 76.105469 84.953125 C 76.261719 84.796875 76.261719 84.484375 76.261719 84.171875 C 76.261719 83.859375 76.105469 83.703125 76.105469 83.386719 Z M 46.488281 81.195312 L 73.597656 81.195312 L 73.128906 82.761719 L 46.488281 82.761719 Z M 58.554688 131.339844 L 66.390625 131.339844 L 67.488281 139.175781 L 60.121094 139.175781 Z M 126.722656 139.175781 L 119.355469 139.175781 L 120.453125 131.339844 L 128.289062 131.339844 Z M 126.722656 139.175781 " fill-opacity="1" fill-rule="nonzero"/></g><g clip-path="url(#effbeb67e3)"><path fill="#f26cf9" d="M 93.496094 9.585938 C 47.179688 9.585938 9.585938 47.179688 9.585938 93.496094 C 9.585938 139.8125 47.179688 177.40625 93.496094 177.40625 C 139.8125 177.40625 177.40625 139.8125 177.40625 93.496094 C 177.40625 47.179688 139.8125 9.585938 93.496094 9.585938 Z M 93.496094 14.246094 C 137.292969 14.246094 172.746094 49.699219 172.746094 93.496094 C 172.746094 137.292969 137.292969 172.746094 93.496094 172.746094 C 49.699219 172.746094 14.246094 137.292969 14.246094 93.496094 C 14.246094 49.699219 49.699219 14.246094 93.496094 14.246094 Z M 93.496094 14.246094 " fill-opacity="1" fill-rule="nonzero"/></g><g clip-path="url(#444f1092aa)"><g clip-path="url(#f9381228e6)"><g clip-path="url(#6101dc91f0)"><path fill="#f26cf9" d="M 148.847656 33.113281 L 33.113281 148.847656 L 38.144531 153.878906 L 153.878906 38.144531 Z M 148.847656 33.113281 " fill-opacity="1" fill-rule="nonzero"/></g></g></g></svg>