<svg xmlns="http://www.w3.org/2000/svg" xmlns:xlink="http://www.w3.org/1999/xlink" width="250" zoomAndPan="magnify" viewBox="0 0 187.5 187.499992" height="250" preserveAspectRatio="xMidYMid meet" version="1.0"><defs><clipPath id="f876a44cf2"><path d="M 32.398438 57.394531 L 154.324219 57.394531 L 154.324219 129.953125 L 32.398438 129.953125 Z M 32.398438 57.394531 " clip-rule="nonzero"/></clipPath><clipPath id="27ad364f78"><path d="M 9.585938 9.585938 L 177.136719 9.585938 L 177.136719 177.136719 L 9.585938 177.136719 Z M 9.585938 9.585938 " clip-rule="nonzero"/></clipPath><clipPath id="c66e8622cc"><path d="M 33 33 L 154 33 L 154 154 L 33 154 Z M 33 33 " clip-rule="nonzero"/></clipPath><clipPath id="b39e138249"><path d="M 148.835938 33.101562 L 154.125 38.390625 L 38.289062 154.222656 L 33 148.933594 Z M 148.835938 33.101562 " clip-rule="nonzero"/></clipPath><clipPath id="8ea5b07d8f"><path d="M 148.835938 33.101562 L 154.125 38.390625 L 38.289062 154.222656 L 33 148.933594 Z M 148.835938 33.101562 " clip-rule="nonzero"/></clipPath></defs><g clip-path="url(#f876a44cf2)"><path fill="#37437d" d="M 130.546875 124.816406 C 119.960938 124.816406 111.351562 116.207031 111.351562 105.621094 C 111.351562 97.667969 116.214844 90.832031 123.117188 87.921875 L 128.671875 107.542969 C 128.9375 108.484375 129.796875 109.101562 130.730469 109.101562 C 130.921875 109.101562 131.121094 109.074219 131.3125 109.019531 C 132.449219 108.695312 133.113281 107.511719 132.792969 106.375 L 127.226562 86.71875 C 128.304688 86.53125 129.414062 86.425781 130.546875 86.425781 C 141.132812 86.425781 149.742188 95.039062 149.742188 105.621094 C 149.742188 116.207031 141.132812 124.816406 130.546875 124.816406 Z M 92.386719 100.503906 C 92.355469 100.484375 92.328125 100.464844 92.296875 100.449219 L 94.011719 94.273438 L 95.691406 94.273438 C 96.476562 94.273438 97.117188 93.636719 97.117188 92.847656 C 97.117188 92.058594 96.476562 91.421875 95.691406 91.421875 L 89.984375 91.421875 C 89.195312 91.421875 88.554688 92.058594 88.554688 92.847656 C 88.554688 93.636719 89.195312 94.273438 89.984375 94.273438 L 91.046875 94.273438 L 89.566406 99.613281 C 89.539062 99.613281 89.511719 99.613281 89.484375 99.609375 L 80.683594 74.773438 L 115.402344 74.773438 Z M 56.449219 124.648438 C 45.867188 124.648438 37.253906 116.035156 37.253906 105.453125 C 37.253906 94.871094 45.867188 86.257812 56.449219 86.257812 C 59.246094 86.257812 61.898438 86.863281 64.296875 87.941406 L 53.761719 104.902344 C 52.375 107.132812 53.382812 108.941406 56.007812 108.941406 L 75.320312 108.941406 C 73.675781 117.863281 65.84375 124.648438 56.449219 124.648438 Z M 75.625 104.660156 L 58.953125 104.660156 L 67.984375 90.121094 C 72.4375 93.480469 75.382812 98.726562 75.625 104.660156 Z M 93.3125 106.246094 C 93.3125 108.445312 91.644531 110.265625 89.503906 110.5 C 89.347656 110.515625 89.191406 110.527344 89.03125 110.527344 C 88.183594 110.527344 87.390625 110.273438 86.722656 109.84375 C 86.339844 109.597656 85.996094 109.292969 85.710938 108.941406 C 85.113281 108.203125 84.75 107.265625 84.75 106.246094 C 84.75 105.683594 84.863281 105.152344 85.058594 104.660156 C 85.238281 104.214844 85.488281 103.808594 85.796875 103.449219 C 86.558594 102.570312 87.667969 102.007812 88.910156 101.972656 C 88.949219 101.96875 88.992188 101.964844 89.03125 101.964844 C 89.511719 101.964844 89.96875 102.046875 90.398438 102.191406 C 90.519531 102.234375 90.636719 102.277344 90.753906 102.328125 C 91.066406 102.46875 91.359375 102.644531 91.628906 102.847656 C 92.566406 103.570312 93.199219 104.664062 93.296875 105.910156 C 93.304688 106.023438 93.3125 106.132812 93.3125 106.246094 Z M 76.320312 76.703125 L 84.933594 101.007812 C 83.777344 101.914062 82.933594 103.191406 82.570312 104.660156 L 80.378906 104.660156 C 80.132812 97.023438 76.292969 90.285156 70.5 86.074219 Z M 130.546875 81.671875 C 128.964844 81.671875 127.421875 81.828125 125.925781 82.121094 L 120.164062 61.765625 C 125.636719 61.4375 129.6875 61.269531 132.382812 61.773438 C 134.953125 62.25 135.828125 63.136719 135.972656 65.421875 C 136.121094 67.675781 135.601562 68.507812 135.199219 68.9375 C 134.332031 69.871094 132.378906 70.351562 129.398438 70.367188 C 128.34375 70.371094 127.496094 71.226562 127.503906 72.277344 C 127.507812 73.324219 128.359375 74.171875 129.40625 74.171875 C 129.40625 74.171875 129.410156 74.171875 129.414062 74.171875 C 133.601562 74.152344 136.324219 73.3125 137.984375 71.535156 C 139.367188 70.050781 139.953125 67.972656 139.769531 65.179688 C 139.511719 61.160156 137.324219 58.824219 133.082031 58.03125 C 129.609375 57.382812 124.6875 57.671875 117.917969 58.089844 C 117.59375 58.023438 117.25 58.03125 116.910156 58.128906 C 115.769531 58.449219 115.109375 59.632812 115.433594 60.769531 L 118.183594 70.492188 L 79.167969 70.492188 L 77.699219 66.347656 L 84.503906 66.347656 C 86.082031 66.347656 87.378906 65.265625 87.40625 63.933594 C 87.433594 62.601562 86.183594 61.363281 84.621094 61.167969 L 67.460938 59.023438 C 65.894531 58.828125 64.609375 60.027344 64.585938 61.699219 L 64.566406 63.316406 C 64.546875 64.992188 65.808594 66.347656 67.382812 66.347656 L 72.65625 66.347656 L 74.492188 71.535156 L 66.828125 83.871094 C 63.6875 82.351562 60.167969 81.503906 56.449219 81.503906 C 43.242188 81.503906 32.5 92.246094 32.5 105.453125 C 32.5 118.660156 43.242188 129.40625 56.449219 129.40625 C 68.472656 129.40625 78.449219 120.5 80.144531 108.941406 L 82.949219 108.941406 C 83.578125 110.355469 84.6875 111.511719 86.066406 112.199219 L 84.5 117.851562 L 83.175781 117.851562 C 82.445312 117.851562 81.851562 118.445312 81.851562 119.179688 C 81.851562 119.910156 82.445312 120.503906 83.175781 120.503906 L 88.488281 120.503906 C 89.21875 120.503906 89.816406 119.910156 89.816406 119.179688 C 89.816406 118.445312 89.21875 117.851562 88.488281 117.851562 L 87.460938 117.851562 L 88.835938 112.894531 C 88.902344 112.898438 88.964844 112.90625 89.03125 112.90625 C 92.703125 112.90625 95.691406 109.917969 95.691406 106.246094 C 95.691406 105.371094 95.515625 104.535156 95.207031 103.769531 L 119.816406 76.257812 L 121.816406 83.324219 C 112.914062 86.824219 106.597656 95.496094 106.597656 105.621094 C 106.597656 118.828125 117.339844 129.574219 130.546875 129.574219 C 143.753906 129.574219 154.5 118.828125 154.5 105.621094 C 154.5 92.414062 143.753906 81.671875 130.546875 81.671875 " fill-opacity="1" fill-rule="nonzero"/></g><g clip-path="url(#27ad364f78)"><path fill="#f26cf9" d="M 93.496094 9.585938 C 47.179688 9.585938 9.585938 47.179688 9.585938 93.496094 C 9.585938 139.8125 47.179688 177.40625 93.496094 177.40625 C 139.8125 177.40625 177.40625 139.8125 177.40625 93.496094 C 177.40625 47.179688 139.8125 9.585938 93.496094 9.585938 Z M 93.496094 14.246094 C 137.292969 14.246094 172.746094 49.699219 172.746094 93.496094 C 172.746094 137.292969 137.292969 172.746094 93.496094 172.746094 C 49.699219 172.746094 14.246094 137.292969 14.246094 93.496094 C 14.246094 49.699219 49.699219 14.246094 93.496094 14.246094 Z M 93.496094 14.246094 " fill-opacity="1" fill-rule="nonzero"/></g><g clip-path="url(#c66e8622cc)"><g clip-path="url(#b39e138249)"><g clip-path="url(#8ea5b07d8f)"><path fill="#f26cf9" d="M 148.847656 33.113281 L 33.113281 148.847656 L 38.144531 153.878906 L 153.878906 38.144531 Z M 148.847656 33.113281 " fill-opacity="1" fill-rule="nonzero"/></g></g></g></svg>