<svg xmlns="http://www.w3.org/2000/svg" xmlns:xlink="http://www.w3.org/1999/xlink" width="250" zoomAndPan="magnify" viewBox="0 0 187.5 187.499992" height="250" preserveAspectRatio="xMidYMid meet" version="1.0"><defs><clipPath id="d05180afd1"><path d="M 45.074219 55.359375 L 141.566406 55.359375 L 141.566406 131.65625 L 45.074219 131.65625 Z M 45.074219 55.359375 " clip-rule="nonzero"/></clipPath><clipPath id="f91fdbbf8e"><path d="M 9.585938 9.585938 L 177.136719 9.585938 L 177.136719 177.136719 L 9.585938 177.136719 Z M 9.585938 9.585938 " clip-rule="nonzero"/></clipPath><clipPath id="8b71bbe29a"><path d="M 33 33 L 154 33 L 154 154 L 33 154 Z M 33 33 " clip-rule="nonzero"/></clipPath><clipPath id="a365e252c5"><path d="M 148.835938 33.101562 L 154.125 38.390625 L 38.289062 154.222656 L 33 148.933594 Z M 148.835938 33.101562 " clip-rule="nonzero"/></clipPath><clipPath id="798340ed64"><path d="M 148.835938 33.101562 L 154.125 38.390625 L 38.289062 154.222656 L 33 148.933594 Z M 148.835938 33.101562 " clip-rule="nonzero"/></clipPath></defs><g clip-path="url(#d05180afd1)"><path fill="#37437d" d="M 137.066406 68.253906 L 116.773438 68.253906 L 116.085938 63.402344 L 115.558594 60.132812 C 115.347656 58.816406 114.648438 57.726562 113.554688 56.8125 C 112.433594 55.878906 111.234375 55.390625 109.917969 55.390625 L 76.917969 55.390625 C 75.597656 55.390625 74.386719 55.863281 73.277344 56.8125 C 72.171875 57.761719 71.582031 58.875 71.382812 60.132812 L 70.855469 63.402344 L 70.117188 68.253906 L 49.925781 68.253906 C 47.234375 68.253906 45.074219 70.414062 45.074219 73 L 45.074219 126.769531 C 45.074219 129.457031 47.234375 131.621094 49.925781 131.621094 L 137.066406 131.621094 C 139.753906 131.621094 141.917969 129.457031 141.917969 126.769531 L 141.917969 73 C 141.917969 70.414062 139.753906 68.253906 137.066406 68.253906 Z M 136.066406 125.769531 L 50.875 125.769531 L 50.875 74.054688 L 70.117188 74.054688 C 73.015625 74.054688 75.519531 71.894531 75.914062 69.097656 L 76.601562 64.25 L 77.128906 61.242188 L 109.8125 61.242188 L 110.289062 64.25 L 111.023438 69.097656 C 111.449219 71.890625 113.976562 74.054688 116.773438 74.054688 L 136.066406 74.054688 Z M 136.066406 125.769531 " fill-opacity="1" fill-rule="nonzero"/></g><path fill="#37437d" d="M 126.683594 87.8125 C 129.210938 87.8125 131.320312 85.652344 131.320312 83.121094 C 131.320312 80.539062 129.265625 78.375 126.683594 78.375 C 124.097656 78.375 122.042969 80.539062 122.042969 83.121094 C 122.042969 85.652344 124.152344 87.8125 126.683594 87.8125 Z M 126.683594 87.8125 " fill-opacity="1" fill-rule="nonzero"/><path fill="#37437d" d="M 93.417969 75.582031 C 87.460938 75.582031 82.292969 77.742188 78.023438 82.011719 C 73.753906 86.28125 71.59375 91.449219 71.59375 97.40625 C 71.59375 103.363281 73.753906 108.53125 78.023438 112.800781 C 82.292969 117.070312 87.460938 119.089844 93.417969 119.179688 C 105.226562 119.351562 115.378906 109.109375 115.242188 97.40625 C 115.171875 91.398438 113.078125 86.28125 108.8125 82.011719 C 104.539062 77.742188 99.425781 75.582031 93.417969 75.582031 Z M 104.699219 108.742188 C 101.589844 111.851562 97.847656 113.378906 93.417969 113.378906 C 89.042969 113.378906 85.300781 111.851562 82.1875 108.742188 C 79.078125 105.628906 77.550781 101.835938 77.550781 97.40625 C 77.550781 93.03125 79.078125 89.234375 82.1875 86.125 C 85.300781 83.015625 89.042969 81.433594 93.417969 81.433594 C 97.847656 81.433594 101.589844 83.015625 104.699219 86.125 C 107.808594 89.234375 109.390625 93.03125 109.390625 97.40625 C 109.390625 101.835938 107.808594 105.628906 104.699219 108.742188 Z M 104.699219 108.742188 " fill-opacity="1" fill-rule="nonzero"/><g clip-path="url(#f91fdbbf8e)"><path fill="#f26cf9" d="M 93.496094 9.585938 C 47.179688 9.585938 9.585938 47.179688 9.585938 93.496094 C 9.585938 139.8125 47.179688 177.40625 93.496094 177.40625 C 139.8125 177.40625 177.40625 139.8125 177.40625 93.496094 C 177.40625 47.179688 139.8125 9.585938 93.496094 9.585938 Z M 93.496094 14.246094 C 137.292969 14.246094 172.746094 49.699219 172.746094 93.496094 C 172.746094 137.292969 137.292969 172.746094 93.496094 172.746094 C 49.699219 172.746094 14.246094 137.292969 14.246094 93.496094 C 14.246094 49.699219 49.699219 14.246094 93.496094 14.246094 Z M 93.496094 14.246094 " fill-opacity="1" fill-rule="nonzero"/></g><g clip-path="url(#8b71bbe29a)"><g clip-path="url(#a365e252c5)"><g clip-path="url(#798340ed64)"><path fill="#f26cf9" d="M 148.847656 33.113281 L 33.113281 148.847656 L 38.144531 153.878906 L 153.878906 38.144531 Z M 148.847656 33.113281 " fill-opacity="1" fill-rule="nonzero"/></g></g></g></svg>