<svg xmlns="http://www.w3.org/2000/svg" xmlns:xlink="http://www.w3.org/1999/xlink" width="250" zoomAndPan="magnify" viewBox="0 0 187.5 187.499992" height="250" preserveAspectRatio="xMidYMid meet" version="1.0"><defs><clipPath id="84b9600eb8"><path d="M 43.015625 43.015625 L 143.984375 43.015625 L 143.984375 143.984375 L 43.015625 143.984375 Z M 43.015625 43.015625 " clip-rule="nonzero"/></clipPath><clipPath id="4a66cd5979"><path d="M 9.585938 9.585938 L 177.136719 9.585938 L 177.136719 177.136719 L 9.585938 177.136719 Z M 9.585938 9.585938 " clip-rule="nonzero"/></clipPath><clipPath id="2351e9ac3f"><path d="M 33 33 L 154 33 L 154 154 L 33 154 Z M 33 33 " clip-rule="nonzero"/></clipPath><clipPath id="1a4f066d93"><path d="M 148.835938 33.101562 L 154.125 38.390625 L 38.289062 154.222656 L 33 148.933594 Z M 148.835938 33.101562 " clip-rule="nonzero"/></clipPath><clipPath id="43de58f0ad"><path d="M 148.835938 33.101562 L 154.125 38.390625 L 38.289062 154.222656 L 33 148.933594 Z M 148.835938 33.101562 " clip-rule="nonzero"/></clipPath></defs><g clip-path="url(#84b9600eb8)"><path fill="#ffffff" d="M 143.984375 93.5 C 143.984375 121.378906 121.378906 143.984375 93.5 143.984375 C 65.617188 143.984375 43.015625 121.378906 43.015625 93.5 C 43.015625 65.617188 65.617188 43.015625 93.5 43.015625 C 121.378906 43.015625 143.984375 65.617188 143.984375 93.5 " fill-opacity="1" fill-rule="nonzero"/></g><path fill="#37437d" d="M 104.019531 115.855469 C 97.46875 112.074219 95.09375 103.84375 98.507812 97.191406 L 98.445312 97.148438 L 96.664062 96.121094 C 95.910156 97.019531 94.777344 97.589844 93.511719 97.589844 C 92.246094 97.589844 91.117188 97.019531 90.363281 96.121094 L 88.578125 97.148438 L 88.519531 97.191406 C 91.933594 103.84375 89.554688 112.074219 83.007812 115.855469 C 77.082031 119.277344 69.707031 117.914062 65.351562 112.96875 L 64.675781 113.359375 C 64.675781 113.359375 68.636719 119.539062 77.753906 120.953125 C 86.691406 122.339844 92.871094 117.136719 93.511719 116.570312 C 94.15625 117.136719 100.332031 122.339844 109.269531 120.953125 C 118.390625 119.539062 122.351562 113.359375 122.351562 113.359375 L 121.675781 112.96875 C 117.320312 117.914062 109.945312 119.277344 104.019531 115.855469 Z M 125.183594 93.394531 C 121.914062 84.960938 114.320312 82.210938 113.507812 81.9375 C 113.679688 81.097656 115.09375 73.148438 109.425781 66.101562 C 103.640625 58.910156 96.308594 58.570312 96.308594 58.570312 L 96.308594 59.351562 C 102.769531 60.648438 107.636719 66.355469 107.636719 73.199219 C 107.636719 80.757812 101.695312 86.933594 94.226562 87.304688 L 94.222656 87.375 L 94.222656 89.433594 C 96.152344 89.769531 97.621094 91.453125 97.621094 93.480469 C 97.621094 93.976562 97.535156 94.453125 97.375 94.894531 L 99.15625 95.921875 L 99.222656 95.953125 C 103.277344 89.671875 111.59375 87.613281 118.140625 91.394531 C 124.070312 94.816406 126.578125 101.882812 124.46875 108.128906 L 125.144531 108.519531 C 125.144531 108.519531 128.515625 101.996094 125.183594 93.394531 Z M 98.546875 106.023438 C 98.863281 108.449219 100.238281 110.4375 100.238281 110.4375 C 105.910156 108.34375 108.816406 103.441406 109.238281 102.691406 C 109.273438 102.625 109.3125 102.5625 109.351562 102.496094 C 109.792969 101.757812 112.582031 96.785156 111.558594 90.828125 C 111.558594 90.828125 109.152344 90.632812 106.890625 91.570312 C 106.890625 91.570312 107.789062 95.804688 105.191406 100.222656 C 102.660156 104.683594 98.546875 106.023438 98.546875 106.023438 Z M 75.464844 90.828125 C 74.445312 96.785156 77.234375 101.757812 77.675781 102.496094 C 77.714844 102.5625 77.75 102.625 77.789062 102.691406 C 78.207031 103.441406 81.117188 108.34375 86.785156 110.4375 C 86.785156 110.4375 88.164062 108.449219 88.480469 106.023438 C 88.480469 106.023438 84.363281 104.683594 81.835938 100.222656 C 79.238281 95.804688 80.136719 91.570312 80.136719 91.570312 C 77.875 90.632812 75.464844 90.828125 75.464844 90.828125 Z M 85.167969 82.855469 C 85.167969 82.855469 88.386719 79.960938 93.511719 80 C 98.640625 79.960938 101.859375 82.855469 101.859375 82.855469 C 103.800781 81.367188 104.832031 79.179688 104.832031 79.179688 C 100.1875 75.316406 94.488281 75.246094 93.625 75.261719 C 93.550781 75.261719 93.476562 75.261719 93.402344 75.261719 C 92.539062 75.246094 86.839844 75.316406 82.191406 79.179688 C 82.191406 79.179688 83.226562 81.367188 85.167969 82.855469 Z M 62.558594 108.128906 L 61.882812 108.519531 C 61.882812 108.519531 58.507812 101.996094 61.84375 93.394531 C 65.113281 84.960938 72.707031 82.210938 73.515625 81.9375 C 73.347656 81.097656 71.933594 73.148438 77.601562 66.101562 C 83.382812 58.910156 90.71875 58.570312 90.71875 58.570312 L 90.71875 59.351562 C 84.257812 60.648438 79.390625 66.355469 79.390625 73.199219 C 79.390625 80.757812 85.332031 86.933594 92.800781 87.304688 L 92.804688 87.375 L 92.804688 89.433594 C 90.871094 89.769531 89.402344 91.453125 89.402344 93.480469 C 89.402344 93.976562 89.492188 94.453125 89.652344 94.894531 L 87.871094 95.921875 L 87.804688 95.953125 C 83.75 89.671875 75.433594 87.613281 68.886719 91.394531 C 62.957031 94.816406 60.449219 101.882812 62.558594 108.128906 Z M 93.5 52.816406 C 71.066406 52.816406 52.816406 71.066406 52.816406 93.5 C 52.816406 115.929688 71.066406 134.179688 93.5 134.179688 C 115.929688 134.179688 134.179688 115.929688 134.179688 93.5 C 134.179688 71.066406 115.929688 52.816406 93.5 52.816406 Z M 93.5 139.292969 C 81.265625 139.292969 69.765625 134.527344 61.117188 125.878906 C 52.46875 117.230469 47.703125 105.730469 47.703125 93.5 C 47.703125 81.265625 52.46875 69.765625 61.117188 61.117188 C 69.765625 52.46875 81.265625 47.703125 93.5 47.703125 C 105.730469 47.703125 117.230469 52.46875 125.878906 61.117188 C 134.527344 69.765625 139.292969 81.265625 139.292969 93.5 C 139.292969 105.730469 134.527344 117.230469 125.878906 125.878906 C 117.230469 134.527344 105.730469 139.292969 93.5 139.292969 " fill-opacity="1" fill-rule="nonzero"/><g clip-path="url(#4a66cd5979)"><path fill="#f26cf9" d="M 93.496094 9.585938 C 47.179688 9.585938 9.585938 47.179688 9.585938 93.496094 C 9.585938 139.8125 47.179688 177.40625 93.496094 177.40625 C 139.8125 177.40625 177.40625 139.8125 177.40625 93.496094 C 177.40625 47.179688 139.8125 9.585938 93.496094 9.585938 Z M 93.496094 14.246094 C 137.292969 14.246094 172.746094 49.699219 172.746094 93.496094 C 172.746094 137.292969 137.292969 172.746094 93.496094 172.746094 C 49.699219 172.746094 14.246094 137.292969 14.246094 93.496094 C 14.246094 49.699219 49.699219 14.246094 93.496094 14.246094 Z M 93.496094 14.246094 " fill-opacity="1" fill-rule="nonzero"/></g><g clip-path="url(#2351e9ac3f)"><g clip-path="url(#1a4f066d93)"><g clip-path="url(#43de58f0ad)"><path fill="#f26cf9" d="M 148.847656 33.113281 L 33.113281 148.847656 L 38.144531 153.878906 L 153.878906 38.144531 Z M 148.847656 33.113281 " fill-opacity="1" fill-rule="nonzero"/></g></g></g></svg>