<svg xmlns="http://www.w3.org/2000/svg" xmlns:xlink="http://www.w3.org/1999/xlink" width="250" zoomAndPan="magnify" viewBox="0 0 187.5 187.499992" height="250" preserveAspectRatio="xMidYMid meet" version="1.0"><defs><clipPath id="315a9f1b49"><path d="M 43 43 L 144.351562 43 L 144.351562 144.351562 L 43 144.351562 Z M 43 43 " clip-rule="nonzero"/></clipPath><clipPath id="35c460d5a3"><path d="M 9.585938 9.585938 L 177.136719 9.585938 L 177.136719 177.136719 L 9.585938 177.136719 Z M 9.585938 9.585938 " clip-rule="nonzero"/></clipPath><clipPath id="126c7f874a"><path d="M 33 33 L 154 33 L 154 154 L 33 154 Z M 33 33 " clip-rule="nonzero"/></clipPath><clipPath id="8121f7753f"><path d="M 148.835938 33.101562 L 154.125 38.390625 L 38.289062 154.222656 L 33 148.933594 Z M 148.835938 33.101562 " clip-rule="nonzero"/></clipPath><clipPath id="5b34a7a4ac"><path d="M 148.835938 33.101562 L 154.125 38.390625 L 38.289062 154.222656 L 33 148.933594 Z M 148.835938 33.101562 " clip-rule="nonzero"/></clipPath></defs><g clip-path="url(#315a9f1b49)"><path fill="#37437d" d="M 82.859375 102.601562 C 85.515625 100.320312 87.320312 97.4375 89.601562 94.828125 C 91.695312 92.421875 94.128906 90.359375 96.339844 88.078125 C 99.558594 91.640625 102.699219 95.285156 106.109375 98.636719 C 110.636719 103.078125 115.253906 107.320312 119.546875 112.003906 C 124.109375 116.992188 128.777344 121.957031 132.726562 127.460938 C 134.484375 129.910156 136.265625 132.371094 137.796875 134.972656 C 139.160156 137.289062 140.894531 139.589844 141.917969 142.101562 C 136.125 140.25 130.542969 138.371094 125.15625 135.394531 C 119.4375 132.21875 113.742188 128.691406 108.683594 124.519531 C 103.734375 120.445312 99.15625 115.945312 94.246094 111.828125 C 90.503906 108.695312 86.660156 105.671875 82.859375 102.601562 Z M 82.832031 96.867188 C 82.214844 97.578125 81.5625 98.296875 80.808594 98.859375 C 82.960938 96.503906 85.21875 93.351562 84.644531 90.398438 C 84.667969 90.386719 84.6875 90.375 84.710938 90.363281 C 86.335938 92.710938 84.429688 95.035156 82.832031 96.867188 Z M 82.03125 101.925781 C 81.433594 101.4375 80.832031 100.949219 80.234375 100.453125 C 82.261719 99.492188 83.761719 97.519531 85.042969 95.738281 C 86.492188 93.726562 86.953125 91.875 85.65625 89.886719 C 88.308594 88.429688 90.542969 86.207031 92.425781 83.859375 C 93.511719 84.980469 94.574219 86.128906 95.628906 87.28125 C 93.394531 89.570312 90.871094 91.597656 88.847656 94.074219 C 86.65625 96.773438 84.710938 99.652344 82.039062 101.917969 Z M 47.511719 53.582031 C 47 50.515625 47.851562 45.277344 52.460938 48.070312 C 57.558594 51.160156 61.703125 56.222656 65.820312 60.476562 C 70.050781 64.84375 74.695312 68.796875 78.796875 73.273438 C 80.90625 75.574219 83.203125 77.691406 85.308594 79.992188 C 86.722656 81.523438 88.164062 83.003906 89.933594 84.082031 C 88.238281 85.96875 86.273438 87.65625 83.984375 88.757812 C 83.9375 88.679688 83.894531 88.605469 83.84375 88.53125 C 81.34375 84.898438 77.199219 82.796875 73.601562 80.425781 C 70.945312 78.683594 68.925781 76.332031 66.835938 73.949219 C 64.277344 71.03125 61.578125 68.160156 59.320312 65 C 57.789062 62.859375 56.074219 59.96875 53.621094 58.777344 C 52 57.984375 50.40625 58.183594 48.777344 58.171875 C 48.273438 56.671875 47.769531 55.148438 47.511719 53.582031 Z M 46.613281 57.929688 C 45.851562 55.761719 45.21875 53.390625 45.464844 51.078125 C 45.753906 48.375 48.066406 44.222656 51.503906 45.234375 C 54.058594 45.980469 55.722656 48.070312 57.507812 49.898438 C 59.679688 52.117188 61.914062 54.269531 64.144531 56.429688 C 73.164062 65.148438 82.410156 73.636719 91.191406 82.597656 C 90.972656 82.871094 90.753906 83.144531 90.523438 83.40625 C 87.34375 81.546875 84.851562 78.246094 82.304688 75.667969 C 79.675781 73.003906 77.226562 70.203125 74.445312 67.6875 C 68.941406 62.699219 63.925781 57.214844 58.679688 51.960938 C 56.605469 49.886719 50.195312 43.511719 47.300781 47.917969 C 45.371094 50.851562 46.769531 55.019531 47.835938 58.132812 C 47.429688 58.101562 47.023438 58.035156 46.613281 57.929688 Z M 45.320312 46.386719 C 42.789062 50.042969 43.597656 54.726562 45 58.664062 C 45.082031 58.882812 45.210938 59.03125 45.378906 59.128906 C 45.464844 59.332031 45.644531 59.496094 45.914062 59.578125 C 48.753906 60.410156 51.605469 58.929688 54.011719 61.257812 C 55.945312 63.128906 57.339844 65.398438 58.992188 67.507812 C 60.851562 69.886719 62.902344 72.140625 64.898438 74.40625 C 66.636719 76.390625 68.363281 78.707031 70.449219 80.339844 C 73.523438 82.753906 77.164062 84.40625 80.09375 87.011719 C 81.332031 88.109375 83.519531 90.023438 82.96875 91.933594 C 82.164062 94.753906 80.011719 97.242188 77.96875 99.269531 C 77.894531 99.335938 77.847656 99.414062 77.804688 99.492188 C 77.445312 99.796875 77.304688 100.324219 77.769531 100.710938 C 83.085938 105.121094 88.589844 109.292969 93.832031 113.78125 C 98.960938 118.179688 103.785156 122.917969 109.101562 127.09375 C 114.078125 130.992188 119.585938 134.46875 125.179688 137.40625 C 130.804688 140.359375 136.53125 142.238281 142.554688 144.164062 C 142.992188 144.304688 143.324219 144.109375 143.5 143.808594 C 143.894531 143.667969 144.1875 143.296875 144.035156 142.78125 C 143.074219 139.65625 141.011719 136.859375 139.324219 134.082031 C 137.375 130.894531 135.230469 127.789062 132.949219 124.828125 C 128.484375 119.039062 123.46875 113.742188 118.570312 108.316406 C 113.65625 102.871094 107.949219 98.246094 103.085938 92.742188 C 98.058594 87.050781 92.78125 81.597656 87.371094 76.277344 C 81.675781 70.683594 75.859375 65.210938 70.089844 59.6875 C 67.214844 56.949219 64.351562 54.195312 61.519531 51.40625 C 59.5625 49.472656 57.722656 47.167969 55.546875 45.476562 C 52.277344 42.933594 47.945312 42.582031 45.320312 46.386719 " fill-opacity="1" fill-rule="nonzero"/></g><path fill="#37437d" d="M 56.011719 56.363281 C 55.351562 56.285156 54.835938 55.980469 54.894531 55.289062 C 54.980469 54.839844 55.257812 54.269531 55.792969 54.253906 C 56.34375 54.25 56.621094 54.789062 56.648438 55.289062 C 56.671875 55.726562 56.609375 56.441406 56.011719 56.363281 Z M 54.015625 55.242188 C 53.875 56.414062 54.894531 57.214844 56.011719 57.25 C 57.035156 57.28125 57.589844 56.347656 57.539062 55.402344 C 57.484375 54.476562 56.96875 53.355469 55.878906 53.375 C 54.894531 53.390625 54.175781 54.1875 54.027344 55.125 C 54.027344 55.148438 54.035156 55.164062 54.035156 55.1875 C 54.027344 55.207031 54.015625 55.226562 54.015625 55.242188 " fill-opacity="1" fill-rule="nonzero"/><path fill="#37437d" d="M 70.125 70.480469 C 69.464844 70.398438 68.949219 70.089844 69.007812 69.402344 C 69.09375 68.949219 69.371094 68.382812 69.90625 68.367188 C 70.457031 68.363281 70.738281 68.90625 70.765625 69.402344 C 70.789062 69.839844 70.722656 70.558594 70.125 70.480469 Z M 68.132812 69.359375 C 67.992188 70.527344 69.007812 71.328125 70.125 71.363281 C 71.148438 71.398438 71.707031 70.460938 71.65625 69.515625 C 71.601562 68.589844 71.085938 67.46875 69.996094 67.488281 C 69.007812 67.503906 68.289062 68.300781 68.140625 69.238281 C 68.140625 69.261719 68.148438 69.277344 68.148438 69.304688 C 68.140625 69.320312 68.132812 69.335938 68.132812 69.359375 " fill-opacity="1" fill-rule="nonzero"/><path fill="#37437d" d="M 82.472656 82.832031 C 81.816406 82.746094 81.296875 82.441406 81.355469 81.753906 C 81.445312 81.300781 81.71875 80.730469 82.257812 80.71875 C 82.808594 80.710938 83.085938 81.253906 83.113281 81.753906 C 83.140625 82.1875 83.074219 82.90625 82.472656 82.832031 Z M 80.480469 81.707031 C 80.335938 82.878906 81.355469 83.675781 82.472656 83.710938 C 83.496094 83.746094 84.058594 82.8125 84 81.863281 C 83.949219 80.945312 83.429688 79.820312 82.34375 79.835938 C 81.355469 79.851562 80.640625 80.648438 80.492188 81.589844 C 80.492188 81.613281 80.5 81.628906 80.5 81.65625 C 80.492188 81.671875 80.480469 81.6875 80.480469 81.707031 " fill-opacity="1" fill-rule="nonzero"/><g clip-path="url(#35c460d5a3)"><path fill="#f26cf9" d="M 93.496094 9.585938 C 47.179688 9.585938 9.585938 47.179688 9.585938 93.496094 C 9.585938 139.8125 47.179688 177.40625 93.496094 177.40625 C 139.8125 177.40625 177.40625 139.8125 177.40625 93.496094 C 177.40625 47.179688 139.8125 9.585938 93.496094 9.585938 Z M 93.496094 14.246094 C 137.292969 14.246094 172.746094 49.699219 172.746094 93.496094 C 172.746094 137.292969 137.292969 172.746094 93.496094 172.746094 C 49.699219 172.746094 14.246094 137.292969 14.246094 93.496094 C 14.246094 49.699219 49.699219 14.246094 93.496094 14.246094 Z M 93.496094 14.246094 " fill-opacity="1" fill-rule="nonzero"/></g><g clip-path="url(#126c7f874a)"><g clip-path="url(#8121f7753f)"><g clip-path="url(#5b34a7a4ac)"><path fill="#f26cf9" d="M 148.847656 33.113281 L 33.113281 148.847656 L 38.144531 153.878906 L 153.878906 38.144531 Z M 148.847656 33.113281 " fill-opacity="1" fill-rule="nonzero"/></g></g></g></svg>