<svg xmlns="http://www.w3.org/2000/svg" xmlns:xlink="http://www.w3.org/1999/xlink" width="250" zoomAndPan="magnify" viewBox="0 0 187.5 187.499992" height="250" preserveAspectRatio="xMidYMid meet" version="1.0"><defs><clipPath id="859268fdf4"><path d="M 65 50.25 L 91 50.25 L 91 81 L 65 81 Z M 65 50.25 " clip-rule="nonzero"/></clipPath><clipPath id="488a052b12"><path d="M 117 76 L 142.410156 76 L 142.410156 106 L 117 106 Z M 117 76 " clip-rule="nonzero"/></clipPath><clipPath id="105e554b4f"><path d="M 97 50.25 L 123 50.25 L 123 81 L 97 81 Z M 97 50.25 " clip-rule="nonzero"/></clipPath><clipPath id="55d467860f"><path d="M 9.585938 9.585938 L 177.136719 9.585938 L 177.136719 177.136719 L 9.585938 177.136719 Z M 9.585938 9.585938 " clip-rule="nonzero"/></clipPath><clipPath id="621a6194a8"><path d="M 33 33 L 154 33 L 154 154 L 33 154 Z M 33 33 " clip-rule="nonzero"/></clipPath><clipPath id="1800e72a68"><path d="M 148.835938 33.101562 L 154.125 38.390625 L 38.289062 154.222656 L 33 148.933594 Z M 148.835938 33.101562 " clip-rule="nonzero"/></clipPath><clipPath id="f56ae8bdda"><path d="M 148.835938 33.101562 L 154.125 38.390625 L 38.289062 154.222656 L 33 148.933594 Z M 148.835938 33.101562 " clip-rule="nonzero"/></clipPath></defs><path fill="#37437d" d="M 114.691406 102.804688 C 112.898438 102.023438 110.460938 98.472656 108.757812 94.160156 C 107.617188 91.265625 104.207031 82.699219 94.972656 82.042969 C 94.785156 82.003906 94.597656 81.980469 94.398438 81.980469 C 94.304688 81.980469 94.222656 81.996094 94.128906 81.996094 C 94.035156 81.996094 93.949219 81.980469 93.855469 81.980469 C 93.660156 81.980469 93.46875 82.003906 93.285156 82.042969 C 84.050781 82.699219 80.640625 91.265625 79.496094 94.160156 C 77.796875 98.472656 75.355469 102.023438 73.5625 102.804688 C 65.902344 106.136719 61.304688 114.207031 62.386719 122.421875 C 63.378906 129.957031 68.851562 135.367188 76.671875 136.539062 C 77.589844 136.675781 78.511719 136.746094 79.433594 136.746094 C 81.949219 136.746094 84.460938 136.238281 86.828125 135.242188 C 87.863281 134.808594 88.800781 134.304688 89.703125 133.816406 C 91.269531 132.972656 92.636719 132.238281 94.128906 132.070312 C 95.617188 132.238281 96.988281 132.972656 98.550781 133.816406 C 99.457031 134.304688 100.390625 134.808594 101.425781 135.242188 C 103.792969 136.238281 106.308594 136.746094 108.820312 136.746094 C 109.746094 136.746094 110.667969 136.675781 111.582031 136.539062 C 119.402344 135.367188 124.875 129.957031 125.867188 122.421875 C 126.949219 114.207031 122.355469 106.136719 114.691406 102.804688 Z M 114.691406 102.804688 " fill-opacity="1" fill-rule="nonzero"/><path fill="#37437d" d="M 70.210938 89.171875 C 69.136719 81.726562 63.589844 76.113281 57.304688 76.113281 C 56.804688 76.113281 56.292969 76.152344 55.792969 76.222656 C 49.019531 77.203125 44.460938 84.605469 45.636719 92.726562 C 46.710938 100.167969 52.261719 105.78125 58.542969 105.78125 C 59.046875 105.78125 59.554688 105.746094 60.054688 105.675781 C 66.828125 104.691406 71.386719 97.289062 70.210938 89.171875 Z M 70.210938 89.171875 " fill-opacity="1" fill-rule="nonzero"/><g clip-path="url(#859268fdf4)"><path fill="#37437d" d="M 78.1875 80.007812 C 85.035156 80.007812 90.605469 73.332031 90.605469 65.128906 C 90.605469 56.925781 85.035156 50.25 78.1875 50.25 C 71.34375 50.25 65.773438 56.925781 65.773438 65.128906 C 65.773438 73.332031 71.34375 80.007812 78.1875 80.007812 Z M 78.1875 80.007812 " fill-opacity="1" fill-rule="nonzero"/></g><g clip-path="url(#488a052b12)"><path fill="#37437d" d="M 139.578125 81.285156 C 137.429688 78.175781 134.355469 76.335938 130.929688 76.105469 C 124.082031 75.632812 118.089844 81.957031 117.535156 90.105469 C 117.273438 93.960938 118.242188 97.691406 120.265625 100.609375 C 122.417969 103.71875 125.488281 105.558594 128.914062 105.792969 C 129.152344 105.808594 129.394531 105.816406 129.628906 105.816406 C 136.207031 105.816406 141.777344 99.65625 142.308594 91.789062 C 142.570312 87.9375 141.601562 84.207031 139.578125 81.285156 Z M 139.578125 81.285156 " fill-opacity="1" fill-rule="nonzero"/></g><g clip-path="url(#105e554b4f)"><path fill="#37437d" d="M 109.660156 80.007812 C 116.503906 80.007812 122.074219 73.332031 122.074219 65.128906 C 122.074219 56.925781 116.503906 50.25 109.660156 50.25 C 102.8125 50.25 97.242188 56.925781 97.242188 65.128906 C 97.242188 73.332031 102.8125 80.007812 109.660156 80.007812 Z M 109.660156 80.007812 " fill-opacity="1" fill-rule="nonzero"/></g><g clip-path="url(#55d467860f)"><path fill="#f26cf9" d="M 93.496094 9.585938 C 47.179688 9.585938 9.585938 47.179688 9.585938 93.496094 C 9.585938 139.8125 47.179688 177.40625 93.496094 177.40625 C 139.8125 177.40625 177.40625 139.8125 177.40625 93.496094 C 177.40625 47.179688 139.8125 9.585938 93.496094 9.585938 Z M 93.496094 14.246094 C 137.292969 14.246094 172.746094 49.699219 172.746094 93.496094 C 172.746094 137.292969 137.292969 172.746094 93.496094 172.746094 C 49.699219 172.746094 14.246094 137.292969 14.246094 93.496094 C 14.246094 49.699219 49.699219 14.246094 93.496094 14.246094 Z M 93.496094 14.246094 " fill-opacity="1" fill-rule="nonzero"/></g><g clip-path="url(#621a6194a8)"><g clip-path="url(#1800e72a68)"><g clip-path="url(#f56ae8bdda)"><path fill="#f26cf9" d="M 148.847656 33.113281 L 33.113281 148.847656 L 38.144531 153.878906 L 153.878906 38.144531 Z M 148.847656 33.113281 " fill-opacity="1" fill-rule="nonzero"/></g></g></g></svg>