<svg xmlns="http://www.w3.org/2000/svg" xmlns:xlink="http://www.w3.org/1999/xlink" width="250" zoomAndPan="magnify" viewBox="0 0 187.5 187.499992" height="250" preserveAspectRatio="xMidYMid meet" version="1.0"><defs><clipPath id="45faff0786"><path d="M 41 40.222656 L 147.722656 40.222656 L 147.722656 146.4375 L 41 146.4375 Z M 41 40.222656 " clip-rule="nonzero"/></clipPath><clipPath id="2791b73d86"><path d="M 9.585938 9.585938 L 177.136719 9.585938 L 177.136719 177.136719 L 9.585938 177.136719 Z M 9.585938 9.585938 " clip-rule="nonzero"/></clipPath><clipPath id="a0425d9416"><path d="M 33 33 L 154 33 L 154 154 L 33 154 Z M 33 33 " clip-rule="nonzero"/></clipPath><clipPath id="d789bae688"><path d="M 148.835938 33.101562 L 154.125 38.390625 L 38.289062 154.222656 L 33 148.933594 Z M 148.835938 33.101562 " clip-rule="nonzero"/></clipPath><clipPath id="358bfcc6be"><path d="M 148.835938 33.101562 L 154.125 38.390625 L 38.289062 154.222656 L 33 148.933594 Z M 148.835938 33.101562 " clip-rule="nonzero"/></clipPath><clipPath id="a6f6edfc72"><path d="M 57 66 L 82 66 L 82 91 L 57 91 Z M 57 66 " clip-rule="nonzero"/></clipPath><clipPath id="4b3b4d437c"><path d="M 60.195312 65.6875 L 82.410156 87.902344 L 78.179688 92.132812 L 55.964844 69.917969 Z M 60.195312 65.6875 " clip-rule="nonzero"/></clipPath><clipPath id="faccd807da"><path d="M 60.195312 65.6875 L 82.410156 87.902344 L 78.179688 92.132812 L 55.964844 69.917969 Z M 60.195312 65.6875 " clip-rule="nonzero"/></clipPath></defs><g clip-path="url(#45faff0786)"><path fill="#37437d" d="M 49.039062 47.808594 C 53.746094 43.105469 60.003906 40.511719 66.65625 40.511719 C 73.316406 40.511719 79.574219 43.105469 84.28125 47.808594 L 140.417969 103.949219 C 145.125 108.65625 147.714844 114.914062 147.714844 121.570312 C 147.714844 128.226562 145.125 134.488281 140.417969 139.191406 C 135.714844 143.894531 129.457031 146.488281 122.796875 146.488281 C 116.144531 146.488281 109.886719 143.894531 105.179688 139.1875 L 49.039062 83.050781 C 39.324219 73.335938 39.324219 57.523438 49.039062 47.808594 Z M 109.40625 134.960938 C 112.984375 138.539062 117.742188 140.507812 122.796875 140.507812 C 127.859375 140.507812 132.613281 138.542969 136.191406 134.960938 C 139.765625 131.386719 141.738281 126.628906 141.738281 121.570312 C 141.738281 116.511719 139.769531 111.757812 136.191406 108.179688 L 109.179688 81.167969 L 82.394531 107.949219 Z M 53.265625 78.820312 L 80.277344 105.832031 L 107.0625 79.050781 L 80.050781 52.035156 C 76.472656 48.460938 71.71875 46.492188 66.65625 46.492188 C 61.601562 46.492188 56.84375 48.460938 53.265625 52.035156 C 45.882812 59.421875 45.882812 71.4375 53.265625 78.820312 Z M 53.265625 78.820312 " fill-opacity="1" fill-rule="nonzero"/></g><g clip-path="url(#2791b73d86)"><path fill="#f26cf9" d="M 93.496094 9.585938 C 47.179688 9.585938 9.585938 47.179688 9.585938 93.496094 C 9.585938 139.8125 47.179688 177.40625 93.496094 177.40625 C 139.8125 177.40625 177.40625 139.8125 177.40625 93.496094 C 177.40625 47.179688 139.8125 9.585938 93.496094 9.585938 Z M 93.496094 14.246094 C 137.292969 14.246094 172.746094 49.699219 172.746094 93.496094 C 172.746094 137.292969 137.292969 172.746094 93.496094 172.746094 C 49.699219 172.746094 14.246094 137.292969 14.246094 93.496094 C 14.246094 49.699219 49.699219 14.246094 93.496094 14.246094 Z M 93.496094 14.246094 " fill-opacity="1" fill-rule="nonzero"/></g><g clip-path="url(#a0425d9416)"><g clip-path="url(#d789bae688)"><g clip-path="url(#358bfcc6be)"><path fill="#f26cf9" d="M 148.847656 33.113281 L 33.113281 148.847656 L 38.144531 153.878906 L 153.878906 38.144531 Z M 148.847656 33.113281 " fill-opacity="1" fill-rule="nonzero"/></g></g></g><g clip-path="url(#a6f6edfc72)"><g clip-path="url(#4b3b4d437c)"><g clip-path="url(#faccd807da)"><path fill="#37437d" d="M 62.238281 67.730469 L 80.507812 86 C 80.773438 86.265625 80.976562 86.570312 81.121094 86.917969 C 81.265625 87.261719 81.335938 87.621094 81.335938 87.996094 C 81.335938 88.371094 81.265625 88.730469 81.121094 89.078125 C 80.976562 89.421875 80.773438 89.726562 80.507812 89.992188 C 80.246094 90.257812 79.9375 90.460938 79.59375 90.605469 C 79.246094 90.746094 78.886719 90.820312 78.511719 90.820312 C 78.140625 90.820312 77.777344 90.746094 77.433594 90.605469 C 77.085938 90.460938 76.78125 90.257812 76.515625 89.992188 L 58.246094 71.722656 C 57.980469 71.457031 57.777344 71.152344 57.636719 70.804688 C 57.492188 70.460938 57.421875 70.101562 57.417969 69.726562 C 57.417969 69.351562 57.492188 68.992188 57.632812 68.644531 C 57.777344 68.300781 57.980469 67.996094 58.246094 67.730469 C 58.511719 67.464844 58.816406 67.261719 59.164062 67.117188 C 59.507812 66.976562 59.867188 66.902344 60.242188 66.902344 C 60.617188 66.902344 60.976562 66.976562 61.324219 67.117188 C 61.667969 67.261719 61.972656 67.464844 62.238281 67.730469 Z M 62.238281 67.730469 " fill-opacity="1" fill-rule="nonzero"/></g></g></g></svg>