<svg xmlns="http://www.w3.org/2000/svg" xmlns:xlink="http://www.w3.org/1999/xlink" width="250" zoomAndPan="magnify" viewBox="0 0 187.5 187.499992" height="250" preserveAspectRatio="xMidYMid meet" version="1.0"><defs><clipPath id="9c6a41f1a6"><path d="M 63.511719 55.214844 L 150.21875 55.214844 L 150.21875 131.511719 L 63.511719 131.511719 Z M 63.511719 55.214844 " clip-rule="nonzero"/></clipPath><clipPath id="5fcdb08b05"><path d="M 36.78125 89.316406 L 57.433594 89.316406 L 57.433594 95.367188 L 36.78125 95.367188 Z M 36.78125 89.316406 " clip-rule="nonzero"/></clipPath><clipPath id="36532df74a"><path d="M 9.585938 9.585938 L 177.136719 9.585938 L 177.136719 177.136719 L 9.585938 177.136719 Z M 9.585938 9.585938 " clip-rule="nonzero"/></clipPath><clipPath id="82fbf9affd"><path d="M 33 33 L 154 33 L 154 154 L 33 154 Z M 33 33 " clip-rule="nonzero"/></clipPath><clipPath id="dfb9b97111"><path d="M 148.835938 33.101562 L 154.125 38.390625 L 38.289062 154.222656 L 33 148.933594 Z M 148.835938 33.101562 " clip-rule="nonzero"/></clipPath><clipPath id="f0969cab19"><path d="M 148.835938 33.101562 L 154.125 38.390625 L 38.289062 154.222656 L 33 148.933594 Z M 148.835938 33.101562 " clip-rule="nonzero"/></clipPath></defs><g clip-path="url(#9c6a41f1a6)"><path fill="#37437d" d="M 71.066406 117.167969 C 71.066406 119.117188 72.367188 120.089844 72.929688 120.421875 C 73.488281 120.75 74.972656 121.410156 76.675781 120.457031 L 109.390625 102.132812 L 109.390625 78.644531 L 76.441406 63.121094 C 75.25 62.558594 73.929688 62.644531 72.816406 63.347656 C 71.703125 64.054688 71.066406 65.214844 71.066406 66.53125 Z M 124.5 122.386719 C 124.5 124.242188 126.007812 125.75 127.859375 125.75 C 129.714844 125.75 131.222656 124.242188 131.222656 122.386719 L 131.222656 108.109375 L 124.5 108.109375 Z M 142.679688 96.800781 L 142.679688 83.789062 C 142.679688 81.710938 140.992188 80.019531 138.910156 80.019531 L 116.929688 80.019531 L 116.929688 100.570312 L 138.910156 100.570312 C 140.992188 100.570312 142.679688 98.878906 142.679688 96.800781 Z M 68.777344 56.980469 C 72.066406 54.894531 76.132812 54.640625 79.652344 56.300781 L 114.003906 72.484375 L 138.910156 72.484375 C 145.148438 72.484375 150.21875 77.554688 150.21875 83.789062 L 150.21875 96.800781 C 150.21875 103.039062 145.148438 108.109375 138.910156 108.109375 L 137.253906 108.109375 L 137.253906 122.386719 C 137.253906 127.566406 133.039062 131.78125 127.859375 131.78125 C 122.679688 131.78125 118.46875 127.566406 118.46875 122.386719 L 118.46875 108.109375 L 114.144531 108.109375 L 80.359375 127.035156 C 78.625 128.007812 76.726562 128.492188 74.832031 128.492188 C 72.867188 128.492188 70.898438 127.96875 69.117188 126.925781 C 65.617188 124.871094 63.527344 121.226562 63.527344 117.167969 L 63.527344 66.53125 C 63.527344 62.636719 65.488281 59.066406 68.777344 56.980469 " fill-opacity="1" fill-rule="nonzero"/></g><g clip-path="url(#5fcdb08b05)"><path fill="#37437d" d="M 39.792969 89.324219 L 54.398438 89.324219 C 56.0625 89.324219 57.414062 90.671875 57.414062 92.339844 C 57.414062 94.003906 56.0625 95.355469 54.398438 95.355469 L 39.792969 95.355469 C 38.128906 95.355469 36.78125 94.003906 36.78125 92.339844 C 36.78125 90.671875 38.128906 89.324219 39.792969 89.324219 " fill-opacity="1" fill-rule="nonzero"/></g><path fill="#37437d" d="M 43 117.277344 L 54.554688 110.605469 C 55.996094 109.773438 57.839844 110.265625 58.671875 111.710938 C 59.503906 113.152344 59.011719 114.996094 57.570312 115.828125 L 46.015625 122.5 C 45.539062 122.773438 45.023438 122.90625 44.511719 122.90625 C 43.46875 122.90625 42.453125 122.363281 41.894531 121.394531 C 41.0625 119.953125 41.558594 118.109375 43 117.277344 " fill-opacity="1" fill-rule="nonzero"/><path fill="#37437d" d="M 56.523438 74.476562 C 56.167969 74.476562 55.808594 74.414062 55.457031 74.28125 L 42.976562 69.558594 C 41.421875 68.96875 40.636719 67.230469 41.226562 65.671875 C 41.8125 64.113281 43.550781 63.328125 45.113281 63.917969 L 57.589844 68.640625 C 59.148438 69.230469 59.933594 70.96875 59.34375 72.527344 C 58.886719 73.734375 57.738281 74.476562 56.523438 74.476562 " fill-opacity="1" fill-rule="nonzero"/><g clip-path="url(#36532df74a)"><path fill="#f26cf9" d="M 93.496094 9.585938 C 47.179688 9.585938 9.585938 47.179688 9.585938 93.496094 C 9.585938 139.8125 47.179688 177.40625 93.496094 177.40625 C 139.8125 177.40625 177.40625 139.8125 177.40625 93.496094 C 177.40625 47.179688 139.8125 9.585938 93.496094 9.585938 Z M 93.496094 14.246094 C 137.292969 14.246094 172.746094 49.699219 172.746094 93.496094 C 172.746094 137.292969 137.292969 172.746094 93.496094 172.746094 C 49.699219 172.746094 14.246094 137.292969 14.246094 93.496094 C 14.246094 49.699219 49.699219 14.246094 93.496094 14.246094 Z M 93.496094 14.246094 " fill-opacity="1" fill-rule="nonzero"/></g><g clip-path="url(#82fbf9affd)"><g clip-path="url(#dfb9b97111)"><g clip-path="url(#f0969cab19)"><path fill="#f26cf9" d="M 148.847656 33.113281 L 33.113281 148.847656 L 38.144531 153.878906 L 153.878906 38.144531 Z M 148.847656 33.113281 " fill-opacity="1" fill-rule="nonzero"/></g></g></g></svg>