<svg xmlns="http://www.w3.org/2000/svg" xmlns:xlink="http://www.w3.org/1999/xlink" width="250" zoomAndPan="magnify" viewBox="0 0 187.5 187.499992" height="250" preserveAspectRatio="xMidYMid meet" version="1.0"><defs><clipPath id="ef9bbad44b"><path d="M 46.691406 46.160156 L 140.191406 46.160156 L 140.191406 141 L 46.691406 141 Z M 46.691406 46.160156 " clip-rule="nonzero"/></clipPath><clipPath id="29b13cf7b3"><path d="M 9.585938 9.585938 L 177.136719 9.585938 L 177.136719 177.136719 L 9.585938 177.136719 Z M 9.585938 9.585938 " clip-rule="nonzero"/></clipPath><clipPath id="af00414ebd"><path d="M 33 33 L 154 33 L 154 154 L 33 154 Z M 33 33 " clip-rule="nonzero"/></clipPath><clipPath id="2c729ce9fd"><path d="M 148.835938 33.101562 L 154.125 38.390625 L 38.289062 154.222656 L 33 148.933594 Z M 148.835938 33.101562 " clip-rule="nonzero"/></clipPath><clipPath id="f2a69fef18"><path d="M 148.835938 33.101562 L 154.125 38.390625 L 38.289062 154.222656 L 33 148.933594 Z M 148.835938 33.101562 " clip-rule="nonzero"/></clipPath></defs><g clip-path="url(#ef9bbad44b)"><path fill="#37437d" d="M 140.140625 84.347656 L 130.390625 59.976562 C 129.714844 58.289062 128.722656 56.808594 127.421875 55.539062 C 126.117188 54.273438 124.609375 53.324219 122.90625 52.691406 L 105.589844 46.316406 C 105.378906 46.234375 105.164062 46.21875 104.945312 46.265625 C 104.726562 46.3125 104.535156 46.414062 104.375 46.574219 C 104.371094 46.578125 104.367188 46.582031 104.363281 46.585938 C 102.503906 48.441406 99.355469 50.914062 93.507812 50.914062 C 90.707031 50.914062 86.535156 50.464844 82.65625 46.585938 C 82.652344 46.582031 82.644531 46.578125 82.640625 46.574219 C 82.480469 46.414062 82.292969 46.3125 82.070312 46.265625 C 81.851562 46.21875 81.636719 46.234375 81.425781 46.316406 L 64.113281 52.691406 C 62.40625 53.324219 60.902344 54.273438 59.597656 55.539062 C 58.292969 56.808594 57.304688 58.289062 56.625 59.976562 L 46.878906 84.347656 C 46.8125 84.507812 46.785156 84.675781 46.796875 84.847656 C 46.804688 85.019531 46.851562 85.179688 46.929688 85.332031 C 47.011719 85.484375 47.121094 85.609375 47.257812 85.714844 C 47.394531 85.816406 47.546875 85.886719 47.71875 85.925781 L 63.144531 89.230469 L 63.144531 139.671875 C 63.144531 139.828125 63.171875 139.976562 63.234375 140.117188 C 63.292969 140.261719 63.375 140.386719 63.484375 140.496094 C 63.59375 140.609375 63.722656 140.691406 63.863281 140.75 C 64.007812 140.808594 64.15625 140.839844 64.3125 140.839844 L 122.707031 140.839844 C 122.859375 140.839844 123.007812 140.808594 123.152344 140.75 C 123.296875 140.691406 123.421875 140.609375 123.53125 140.496094 C 123.640625 140.386719 123.726562 140.261719 123.785156 140.117188 C 123.84375 139.976562 123.875 139.828125 123.875 139.671875 L 123.875 89.230469 L 139.300781 85.925781 C 139.46875 85.886719 139.621094 85.816406 139.757812 85.714844 C 139.894531 85.609375 140.003906 85.484375 140.085938 85.332031 C 140.167969 85.179688 140.210938 85.019531 140.222656 84.847656 C 140.230469 84.675781 140.203125 84.507812 140.140625 84.347656 Z M 103.628906 50.25 C 103.472656 50.796875 103.277344 51.328125 103.035156 51.84375 C 102.796875 52.363281 102.515625 52.855469 102.195312 53.324219 C 101.875 53.796875 101.519531 54.238281 101.128906 54.652344 C 100.734375 55.0625 100.3125 55.441406 99.859375 55.785156 C 99.40625 56.132812 98.925781 56.4375 98.421875 56.703125 C 97.917969 56.96875 97.398438 57.191406 96.859375 57.375 C 96.316406 57.554688 95.765625 57.691406 95.207031 57.785156 C 94.644531 57.875 94.078125 57.921875 93.507812 57.921875 C 92.9375 57.921875 92.375 57.875 91.8125 57.785156 C 91.25 57.691406 90.699219 57.554688 90.160156 57.375 C 89.617188 57.191406 89.097656 56.96875 88.59375 56.703125 C 88.089844 56.4375 87.613281 56.132812 87.160156 55.785156 C 86.703125 55.441406 86.28125 55.0625 85.890625 54.652344 C 85.496094 54.238281 85.140625 53.796875 84.820312 53.324219 C 84.5 52.855469 84.21875 52.363281 83.980469 51.84375 C 83.738281 51.328125 83.542969 50.796875 83.390625 50.25 C 86.265625 52.261719 89.601562 53.25 93.507812 53.25 C 97.417969 53.25 100.753906 52.261719 103.628906 50.25 Z M 123.875 86.839844 L 123.875 74.269531 C 123.875 74.117188 123.84375 73.96875 123.785156 73.824219 C 123.726562 73.679688 123.640625 73.554688 123.53125 73.445312 C 123.421875 73.335938 123.296875 73.25 123.152344 73.191406 C 123.007812 73.132812 122.859375 73.101562 122.707031 73.101562 C 122.550781 73.101562 122.402344 73.132812 122.257812 73.191406 C 122.117188 73.25 121.988281 73.335938 121.878906 73.445312 C 121.769531 73.554688 121.6875 73.679688 121.625 73.824219 C 121.566406 73.96875 121.539062 74.117188 121.539062 74.269531 L 121.539062 138.503906 L 65.480469 138.503906 L 65.480469 74.269531 C 65.480469 74.117188 65.449219 73.96875 65.390625 73.824219 C 65.332031 73.679688 65.246094 73.554688 65.136719 73.445312 C 65.027344 73.335938 64.902344 73.25 64.757812 73.191406 C 64.617188 73.132812 64.464844 73.101562 64.3125 73.101562 C 64.15625 73.101562 64.007812 73.132812 63.863281 73.191406 C 63.722656 73.25 63.59375 73.335938 63.484375 73.445312 C 63.375 73.554688 63.292969 73.679688 63.234375 73.824219 C 63.171875 73.96875 63.144531 74.117188 63.144531 74.269531 L 63.144531 86.839844 L 49.558594 83.929688 L 58.792969 60.84375 C 59.347656 59.460938 60.160156 58.253906 61.226562 57.214844 C 62.292969 56.175781 63.523438 55.398438 64.921875 54.882812 L 80.765625 49.046875 C 80.863281 49.816406 81.03125 50.570312 81.265625 51.304688 C 81.5 52.042969 81.800781 52.753906 82.164062 53.441406 C 82.527344 54.125 82.949219 54.769531 83.429688 55.375 C 83.910156 55.984375 84.441406 56.542969 85.023438 57.054688 C 85.605469 57.566406 86.226562 58.023438 86.890625 58.421875 C 87.554688 58.820312 88.25 59.15625 88.972656 59.429688 C 89.699219 59.703125 90.441406 59.910156 91.203125 60.046875 C 91.964844 60.1875 92.734375 60.257812 93.507812 60.257812 C 94.285156 60.257812 95.050781 60.1875 95.8125 60.046875 C 96.574219 59.910156 97.320312 59.703125 98.042969 59.429688 C 98.769531 59.15625 99.460938 58.820312 100.125 58.421875 C 100.789062 58.023438 101.414062 57.566406 101.996094 57.054688 C 102.578125 56.542969 103.105469 55.984375 103.585938 55.375 C 104.066406 54.769531 104.488281 54.125 104.851562 53.441406 C 105.21875 52.753906 105.515625 52.042969 105.75 51.304688 C 105.984375 50.570312 106.152344 49.816406 106.25 49.046875 L 122.097656 54.882812 C 123.492188 55.398438 124.726562 56.175781 125.792969 57.214844 C 126.859375 58.253906 127.667969 59.460938 128.222656 60.84375 L 137.457031 83.929688 Z M 123.875 86.839844 " fill-opacity="1" fill-rule="nonzero"/></g><g clip-path="url(#29b13cf7b3)"><path fill="#f26cf9" d="M 93.496094 9.585938 C 47.179688 9.585938 9.585938 47.179688 9.585938 93.496094 C 9.585938 139.8125 47.179688 177.40625 93.496094 177.40625 C 139.8125 177.40625 177.40625 139.8125 177.40625 93.496094 C 177.40625 47.179688 139.8125 9.585938 93.496094 9.585938 Z M 93.496094 14.246094 C 137.292969 14.246094 172.746094 49.699219 172.746094 93.496094 C 172.746094 137.292969 137.292969 172.746094 93.496094 172.746094 C 49.699219 172.746094 14.246094 137.292969 14.246094 93.496094 C 14.246094 49.699219 49.699219 14.246094 93.496094 14.246094 Z M 93.496094 14.246094 " fill-opacity="1" fill-rule="nonzero"/></g><g clip-path="url(#af00414ebd)"><g clip-path="url(#2c729ce9fd)"><g clip-path="url(#f2a69fef18)"><path fill="#f26cf9" d="M 148.847656 33.113281 L 33.113281 148.847656 L 38.144531 153.878906 L 153.878906 38.144531 Z M 148.847656 33.113281 " fill-opacity="1" fill-rule="nonzero"/></g></g></g></svg>