<svg xmlns="http://www.w3.org/2000/svg" xmlns:xlink="http://www.w3.org/1999/xlink" width="250" zoomAndPan="magnify" viewBox="0 0 187.5 187.499992" height="250" preserveAspectRatio="xMidYMid meet" version="1.0"><defs><clipPath id="ed559d0f12"><path d="M 28.292969 54.191406 L 158.449219 54.191406 L 158.449219 123 L 28.292969 123 Z M 28.292969 54.191406 " clip-rule="nonzero"/></clipPath><clipPath id="a7ac38309d"><path d="M 9.585938 9.585938 L 177.136719 9.585938 L 177.136719 177.136719 L 9.585938 177.136719 Z M 9.585938 9.585938 " clip-rule="nonzero"/></clipPath><clipPath id="69356f41a8"><path d="M 33 33 L 154 33 L 154 154 L 33 154 Z M 33 33 " clip-rule="nonzero"/></clipPath><clipPath id="9c08332b6c"><path d="M 148.835938 33.101562 L 154.125 38.390625 L 38.289062 154.222656 L 33 148.933594 Z M 148.835938 33.101562 " clip-rule="nonzero"/></clipPath><clipPath id="fbbb95a186"><path d="M 148.835938 33.101562 L 154.125 38.390625 L 38.289062 154.222656 L 33 148.933594 Z M 148.835938 33.101562 " clip-rule="nonzero"/></clipPath></defs><g clip-path="url(#ed559d0f12)"><path fill="#37437d" d="M 158.085938 116.671875 C 157.527344 116.191406 156.6875 116.257812 156.207031 116.808594 L 154.214844 119.121094 C 137.59375 95.394531 129.222656 73.234375 125.777344 62.375 C 127.015625 58.378906 127.546875 56.082031 127.570312 55.980469 C 127.734375 55.261719 127.285156 54.550781 126.566406 54.386719 C 125.84375 54.230469 125.132812 54.671875 124.96875 55.390625 C 124.96875 55.402344 124.773438 56.230469 124.378906 57.6875 C 123.976562 56.238281 123.789062 55.441406 123.777344 55.390625 C 123.613281 54.675781 122.90625 54.21875 122.183594 54.390625 C 121.464844 54.554688 121.019531 55.265625 121.179688 55.980469 C 121.199219 56.066406 121.726562 58.3125 122.925781 62.175781 C 94.453125 67.378906 70.761719 63.347656 64.925781 62.175781 C 66.128906 58.308594 66.652344 56.066406 66.671875 55.980469 C 66.835938 55.261719 66.386719 54.550781 65.667969 54.390625 C 64.953125 54.222656 64.238281 54.671875 64.074219 55.390625 C 64.0625 55.449219 63.800781 56.5625 63.234375 58.546875 C 62.667969 56.5625 62.40625 55.449219 62.394531 55.390625 C 62.230469 54.671875 61.511719 54.21875 60.796875 54.390625 C 60.082031 54.554688 59.632812 55.265625 59.792969 55.980469 C 59.816406 56.070312 60.421875 58.667969 61.832031 63.121094 C 58.21875 74.308594 49.761719 96.261719 33.253906 119.667969 L 30.792969 116.8125 C 30.3125 116.257812 29.472656 116.195312 28.914062 116.671875 C 28.355469 117.152344 28.292969 117.992188 28.773438 118.550781 L 31.882812 122.15625 C 32.144531 122.460938 32.519531 122.621094 32.890625 122.621094 C 33.039062 122.621094 33.183594 122.589844 33.320312 122.542969 C 33.457031 122.589844 33.597656 122.621094 33.742188 122.621094 L 49.558594 122.621094 C 49.96875 122.621094 50.355469 122.429688 50.605469 122.109375 C 57.96875 112.675781 61.5625 101.808594 63.230469 94.902344 C 64.902344 101.808594 68.492188 112.675781 75.855469 122.109375 C 76.109375 122.429688 76.496094 122.621094 76.90625 122.621094 L 154.105469 122.621094 C 154.273438 122.621094 154.433594 122.574219 154.589844 122.515625 C 154.625 122.5 154.660156 122.488281 154.695312 122.46875 C 154.847656 122.394531 154.984375 122.296875 155.097656 122.171875 C 155.101562 122.164062 155.105469 122.164062 155.113281 122.15625 L 158.222656 118.550781 C 158.703125 117.992188 158.640625 117.152344 158.082031 116.671875 Z M 64.554688 87.632812 C 64.550781 87.59375 64.527344 87.5625 64.519531 87.523438 C 64.5 87.433594 64.472656 87.351562 64.4375 87.269531 C 64.40625 87.1875 64.367188 87.113281 64.320312 87.042969 C 64.277344 86.980469 64.226562 86.921875 64.167969 86.863281 C 64.101562 86.796875 64.039062 86.738281 63.960938 86.6875 C 63.898438 86.644531 63.828125 86.613281 63.757812 86.582031 C 63.671875 86.542969 63.582031 86.511719 63.484375 86.496094 C 63.445312 86.488281 63.417969 86.464844 63.378906 86.460938 C 63.328125 86.457031 63.28125 86.472656 63.230469 86.472656 C 63.175781 86.472656 63.128906 86.457031 63.074219 86.460938 C 63.035156 86.464844 63.007812 86.488281 62.972656 86.496094 C 62.875 86.511719 62.789062 86.542969 62.703125 86.582031 C 62.628906 86.613281 62.5625 86.644531 62.496094 86.6875 C 62.421875 86.738281 62.355469 86.796875 62.292969 86.863281 C 62.238281 86.917969 62.183594 86.976562 62.136719 87.042969 C 62.089844 87.113281 62.054688 87.1875 62.019531 87.269531 C 61.984375 87.351562 61.957031 87.433594 61.941406 87.523438 C 61.933594 87.5625 61.910156 87.59375 61.902344 87.632812 C 61.882812 87.8125 59.714844 105.738281 48.898438 119.957031 L 36.308594 119.957031 C 50.917969 98.933594 59.128906 79.175781 63.230469 67.324219 C 67.332031 79.171875 75.550781 98.929688 90.160156 119.957031 L 77.558594 119.957031 C 66.742188 105.738281 64.574219 87.8125 64.554688 87.632812 Z M 96.550781 119.957031 L 97.757812 118.550781 C 98.238281 117.992188 98.175781 117.152344 97.617188 116.671875 C 97.058594 116.195312 96.21875 116.257812 95.738281 116.8125 L 93.238281 119.714844 C 77.566406 97.503906 69.144531 76.601562 65.230469 64.949219 C 69.640625 65.789062 80.054688 67.433594 93.804688 67.433594 C 102.636719 67.433594 112.855469 66.75 123.742188 64.734375 C 127.492188 76.140625 135.800781 97.308594 151.542969 119.957031 Z M 96.550781 119.957031 " fill-opacity="1" fill-rule="nonzero"/></g><g clip-path="url(#a7ac38309d)"><path fill="#f26cf9" d="M 93.496094 9.585938 C 47.179688 9.585938 9.585938 47.179688 9.585938 93.496094 C 9.585938 139.8125 47.179688 177.40625 93.496094 177.40625 C 139.8125 177.40625 177.40625 139.8125 177.40625 93.496094 C 177.40625 47.179688 139.8125 9.585938 93.496094 9.585938 Z M 93.496094 14.246094 C 137.292969 14.246094 172.746094 49.699219 172.746094 93.496094 C 172.746094 137.292969 137.292969 172.746094 93.496094 172.746094 C 49.699219 172.746094 14.246094 137.292969 14.246094 93.496094 C 14.246094 49.699219 49.699219 14.246094 93.496094 14.246094 Z M 93.496094 14.246094 " fill-opacity="1" fill-rule="nonzero"/></g><g clip-path="url(#69356f41a8)"><g clip-path="url(#9c08332b6c)"><g clip-path="url(#fbbb95a186)"><path fill="#f26cf9" d="M 148.847656 33.113281 L 33.113281 148.847656 L 38.144531 153.878906 L 153.878906 38.144531 Z M 148.847656 33.113281 " fill-opacity="1" fill-rule="nonzero"/></g></g></g></svg>