<svg xmlns="http://www.w3.org/2000/svg" xmlns:xlink="http://www.w3.org/1999/xlink" width="250" zoomAndPan="magnify" viewBox="0 0 187.5 187.499992" height="250" preserveAspectRatio="xMidYMid meet" version="1.0"><defs><clipPath id="88a72d7322"><path d="M 9.585938 9.585938 L 177.136719 9.585938 L 177.136719 177.136719 L 9.585938 177.136719 Z M 9.585938 9.585938 " clip-rule="nonzero"/></clipPath><clipPath id="8a70fd329d"><path d="M 40.65625 41.050781 L 146.125 41.050781 L 146.125 145.769531 L 40.65625 145.769531 Z M 40.65625 41.050781 " clip-rule="nonzero"/></clipPath><clipPath id="0e2ba55ad9"><path d="M 33 33 L 154 33 L 154 154 L 33 154 Z M 33 33 " clip-rule="nonzero"/></clipPath><clipPath id="b675524430"><path d="M 148.835938 33.101562 L 154.125 38.390625 L 38.289062 154.222656 L 33 148.933594 Z M 148.835938 33.101562 " clip-rule="nonzero"/></clipPath><clipPath id="7f41485293"><path d="M 148.835938 33.101562 L 154.125 38.390625 L 38.289062 154.222656 L 33 148.933594 Z M 148.835938 33.101562 " clip-rule="nonzero"/></clipPath></defs><g clip-path="url(#88a72d7322)"><path fill="#f26cf9" d="M 93.496094 9.585938 C 47.179688 9.585938 9.585938 47.179688 9.585938 93.496094 C 9.585938 139.8125 47.179688 177.40625 93.496094 177.40625 C 139.8125 177.40625 177.40625 139.8125 177.40625 93.496094 C 177.40625 47.179688 139.8125 9.585938 93.496094 9.585938 Z M 93.496094 14.246094 C 137.292969 14.246094 172.746094 49.699219 172.746094 93.496094 C 172.746094 137.292969 137.292969 172.746094 93.496094 172.746094 C 49.699219 172.746094 14.246094 137.292969 14.246094 93.496094 C 14.246094 49.699219 49.699219 14.246094 93.496094 14.246094 Z M 93.496094 14.246094 " fill-opacity="1" fill-rule="nonzero"/></g><g clip-path="url(#8a70fd329d)"><path fill="#37437d" d="M 145.191406 85.660156 C 144.460938 82.703125 143.378906 79.789062 141.96875 77 C 140.597656 74.277344 138.898438 71.644531 136.929688 69.175781 C 134.988281 66.746094 132.769531 64.457031 130.328125 62.371094 C 127.90625 60.296875 125.246094 58.410156 122.433594 56.761719 C 119.601562 55.105469 116.59375 53.683594 113.492188 52.53125 C 110.339844 51.359375 107.066406 50.460938 103.761719 49.855469 C 101.03125 49.359375 98.253906 49.058594 95.488281 48.960938 L 95.113281 42.507812 C 95.070312 41.691406 94.363281 41.050781 93.5 41.050781 C 92.636719 41.050781 91.929688 41.691406 91.886719 42.507812 L 91.515625 48.960938 C 88.746094 49.054688 85.96875 49.355469 83.238281 49.855469 C 79.933594 50.457031 76.660156 51.355469 73.507812 52.527344 C 70.40625 53.679688 67.398438 55.101562 64.566406 56.757812 C 61.753906 58.40625 59.09375 60.292969 56.671875 62.367188 C 54.230469 64.453125 52.011719 66.742188 50.070312 69.171875 C 48.101562 71.640625 46.402344 74.273438 45.03125 76.996094 C 43.621094 79.789062 42.539062 82.703125 41.808594 85.65625 C 41.058594 88.707031 40.679688 91.839844 40.679688 94.964844 C 40.679688 95.238281 40.828125 95.492188 41.070312 95.621094 C 41.3125 95.753906 41.605469 95.742188 41.835938 95.589844 C 41.871094 95.566406 45.539062 93.191406 48.585938 93.191406 C 51.617188 93.191406 55.265625 95.566406 55.300781 95.589844 C 55.304688 95.59375 55.304688 95.59375 55.308594 95.597656 C 55.3125 95.597656 55.316406 95.597656 55.320312 95.601562 C 55.332031 95.609375 55.34375 95.617188 55.355469 95.621094 C 55.355469 95.621094 55.355469 95.621094 55.355469 95.625 C 55.355469 95.625 55.355469 95.625 55.359375 95.625 C 55.375 95.632812 55.394531 95.644531 55.414062 95.652344 C 55.414062 95.652344 55.417969 95.652344 55.417969 95.652344 C 55.425781 95.65625 55.433594 95.660156 55.441406 95.664062 C 55.445312 95.664062 55.449219 95.664062 55.453125 95.667969 C 55.457031 95.667969 55.464844 95.671875 55.472656 95.671875 C 55.476562 95.675781 55.484375 95.675781 55.488281 95.679688 C 55.492188 95.679688 55.496094 95.679688 55.5 95.683594 C 55.507812 95.683594 55.515625 95.6875 55.527344 95.6875 C 55.527344 95.691406 55.527344 95.691406 55.53125 95.691406 C 55.539062 95.691406 55.550781 95.695312 55.558594 95.695312 C 55.558594 95.695312 55.558594 95.695312 55.558594 95.699219 C 55.570312 95.699219 55.578125 95.703125 55.589844 95.703125 C 55.589844 95.703125 55.59375 95.703125 55.59375 95.703125 C 55.609375 95.707031 55.621094 95.707031 55.636719 95.707031 C 55.640625 95.710938 55.644531 95.710938 55.648438 95.710938 C 55.660156 95.710938 55.671875 95.710938 55.683594 95.710938 C 55.6875 95.710938 55.695312 95.710938 55.699219 95.710938 C 55.703125 95.710938 55.707031 95.714844 55.710938 95.714844 C 55.722656 95.714844 55.730469 95.710938 55.742188 95.710938 C 55.742188 95.710938 55.742188 95.710938 55.746094 95.710938 C 55.761719 95.710938 55.777344 95.710938 55.792969 95.707031 C 55.808594 95.707031 55.824219 95.703125 55.84375 95.703125 C 55.84375 95.699219 55.847656 95.699219 55.851562 95.699219 C 55.898438 95.691406 55.941406 95.679688 55.984375 95.660156 C 55.988281 95.660156 55.988281 95.660156 55.992188 95.660156 C 56.003906 95.652344 56.015625 95.648438 56.03125 95.640625 C 56.035156 95.640625 56.039062 95.636719 56.042969 95.636719 C 56.050781 95.632812 56.058594 95.628906 56.066406 95.625 C 56.066406 95.621094 56.070312 95.621094 56.074219 95.621094 C 56.078125 95.617188 56.085938 95.613281 56.09375 95.609375 C 56.101562 95.605469 56.109375 95.597656 56.117188 95.59375 C 56.117188 95.59375 56.121094 95.589844 56.121094 95.589844 C 56.132812 95.582031 57.304688 94.820312 59.152344 94.070312 C 60.839844 93.382812 63.457031 92.566406 66.339844 92.566406 C 68.648438 92.566406 71.546875 93.09375 74.730469 94.097656 C 76.878906 94.777344 78.492188 95.460938 78.847656 95.617188 C 78.867188 95.628906 78.890625 95.640625 78.910156 95.648438 C 79.007812 95.691406 79.113281 95.714844 79.214844 95.714844 C 79.214844 95.714844 79.21875 95.714844 79.21875 95.714844 C 79.21875 95.714844 79.222656 95.714844 79.222656 95.714844 C 79.367188 95.714844 79.507812 95.671875 79.632812 95.59375 C 79.648438 95.582031 79.664062 95.570312 79.679688 95.558594 C 80.191406 95.265625 83.738281 93.339844 89.820312 92.742188 L 89.820312 123.574219 C 89.507812 123.835938 89.308594 124.210938 89.308594 124.632812 L 89.308594 135.929688 C 89.308594 138.011719 87.449219 139.707031 85.160156 139.707031 C 82.871094 139.707031 81.011719 138.011719 81.011719 135.929688 L 81.011719 133.21875 C 81.011719 131.5 79.476562 130.101562 77.582031 130.101562 C 75.691406 130.101562 74.15625 131.5 74.15625 133.21875 L 74.15625 135.929688 C 74.15625 141.457031 79.089844 145.945312 85.160156 145.945312 C 91.230469 145.945312 96.164062 141.457031 96.164062 135.929688 L 96.164062 124.632812 C 96.164062 124.21875 95.96875 123.839844 95.652344 123.578125 L 95.652344 92.625 C 103.082031 93.042969 107.238281 95.507812 107.382812 95.59375 C 107.390625 95.601562 107.402344 95.605469 107.410156 95.613281 C 107.414062 95.613281 107.417969 95.617188 107.417969 95.617188 C 107.429688 95.625 107.441406 95.628906 107.453125 95.636719 C 107.457031 95.636719 107.457031 95.636719 107.460938 95.640625 C 107.472656 95.644531 107.484375 95.648438 107.496094 95.65625 C 107.5 95.65625 107.5 95.65625 107.503906 95.65625 C 107.515625 95.664062 107.527344 95.667969 107.539062 95.671875 C 107.542969 95.671875 107.542969 95.671875 107.546875 95.671875 C 107.558594 95.679688 107.574219 95.683594 107.585938 95.6875 C 107.589844 95.6875 107.589844 95.6875 107.589844 95.6875 C 107.609375 95.691406 107.628906 95.695312 107.644531 95.699219 C 107.648438 95.699219 107.652344 95.699219 107.65625 95.703125 C 107.671875 95.703125 107.6875 95.707031 107.703125 95.707031 C 107.707031 95.707031 107.707031 95.707031 107.710938 95.710938 C 107.820312 95.71875 107.9375 95.707031 108.042969 95.667969 C 108.050781 95.664062 108.058594 95.660156 108.0625 95.660156 C 108.070312 95.65625 108.078125 95.652344 108.089844 95.648438 C 108.105469 95.640625 109.863281 94.863281 112.300781 94.097656 C 115.496094 93.09375 118.402344 92.566406 120.710938 92.566406 C 123.59375 92.566406 126.195312 93.382812 127.871094 94.070312 C 129.703125 94.820312 130.863281 95.582031 130.875 95.589844 C 130.878906 95.589844 130.882812 95.59375 130.886719 95.59375 C 130.894531 95.601562 130.902344 95.605469 130.910156 95.609375 C 130.917969 95.613281 130.925781 95.617188 130.933594 95.621094 C 130.933594 95.625 130.9375 95.625 130.941406 95.628906 C 130.949219 95.632812 130.953125 95.632812 130.960938 95.636719 C 130.964844 95.640625 130.972656 95.640625 130.976562 95.644531 C 130.988281 95.652344 131 95.65625 131.011719 95.660156 C 131.015625 95.660156 131.019531 95.664062 131.023438 95.664062 C 131.039062 95.671875 131.054688 95.675781 131.070312 95.679688 C 131.074219 95.683594 131.082031 95.683594 131.085938 95.683594 C 131.097656 95.6875 131.109375 95.691406 131.121094 95.695312 C 131.125 95.695312 131.132812 95.695312 131.136719 95.699219 C 131.148438 95.699219 131.160156 95.703125 131.171875 95.703125 C 131.175781 95.703125 131.183594 95.707031 131.1875 95.707031 C 131.199219 95.707031 131.210938 95.707031 131.222656 95.710938 C 131.226562 95.710938 131.234375 95.710938 131.238281 95.710938 C 131.253906 95.710938 131.273438 95.714844 131.289062 95.714844 C 131.304688 95.714844 131.324219 95.710938 131.339844 95.710938 C 131.34375 95.710938 131.351562 95.710938 131.355469 95.710938 C 131.367188 95.707031 131.378906 95.707031 131.390625 95.707031 C 131.398438 95.703125 131.402344 95.703125 131.410156 95.703125 C 131.421875 95.699219 131.433594 95.699219 131.445312 95.695312 C 131.449219 95.695312 131.457031 95.695312 131.460938 95.691406 C 131.476562 95.6875 131.488281 95.6875 131.503906 95.679688 C 131.503906 95.679688 131.507812 95.679688 131.511719 95.679688 C 131.527344 95.675781 131.542969 95.667969 131.558594 95.660156 C 131.566406 95.660156 131.570312 95.65625 131.574219 95.65625 C 131.585938 95.652344 131.597656 95.644531 131.609375 95.640625 C 131.613281 95.636719 131.621094 95.636719 131.625 95.632812 C 131.632812 95.628906 131.636719 95.628906 131.640625 95.625 C 131.644531 95.621094 131.652344 95.621094 131.65625 95.617188 C 131.660156 95.613281 131.667969 95.609375 131.675781 95.605469 C 131.683594 95.597656 131.695312 95.59375 131.703125 95.585938 C 131.707031 95.585938 131.710938 95.582031 131.714844 95.578125 C 131.75 95.554688 135.183594 93.191406 138.21875 93.191406 C 141.261719 93.191406 145.140625 95.578125 145.179688 95.601562 C 145.410156 95.742188 145.699219 95.75 145.9375 95.617188 C 146.175781 95.488281 146.320312 95.238281 146.320312 94.964844 C 146.320312 91.839844 145.941406 88.707031 145.191406 85.660156 Z M 138.21875 91.695312 C 135.851562 91.695312 133.390625 92.863281 132 93.648438 C 131.996094 93.636719 131.996094 93.621094 131.996094 93.609375 C 131.996094 93.582031 131.992188 93.554688 131.992188 93.53125 C 131.988281 93.492188 131.988281 93.453125 131.984375 93.414062 C 131.980469 93.386719 131.980469 93.359375 131.980469 93.335938 C 131.976562 93.296875 131.972656 93.257812 131.96875 93.21875 C 131.96875 93.191406 131.964844 93.164062 131.964844 93.140625 C 131.960938 93.097656 131.957031 93.058594 131.953125 93.019531 C 131.953125 92.992188 131.949219 92.96875 131.949219 92.941406 C 131.945312 92.898438 131.941406 92.855469 131.9375 92.808594 C 131.9375 92.789062 131.933594 92.765625 131.933594 92.746094 C 131.925781 92.683594 131.921875 92.625 131.914062 92.5625 C 131.914062 92.558594 131.914062 92.554688 131.914062 92.546875 C 131.90625 92.480469 131.898438 92.414062 131.894531 92.347656 C 131.890625 92.328125 131.886719 92.308594 131.886719 92.289062 C 131.882812 92.242188 131.875 92.195312 131.871094 92.148438 C 131.867188 92.125 131.867188 92.097656 131.863281 92.074219 C 131.859375 92.03125 131.851562 91.992188 131.847656 91.949219 C 131.84375 91.921875 131.839844 91.894531 131.839844 91.867188 C 131.832031 91.828125 131.828125 91.785156 131.824219 91.746094 C 131.820312 91.71875 131.816406 91.691406 131.8125 91.660156 C 131.808594 91.621094 131.800781 91.582031 131.796875 91.542969 C 131.792969 91.515625 131.789062 91.488281 131.785156 91.457031 C 131.78125 91.417969 131.773438 91.378906 131.769531 91.335938 C 131.765625 91.308594 131.761719 91.28125 131.757812 91.253906 C 131.75 91.210938 131.746094 91.167969 131.738281 91.125 C 131.734375 91.101562 131.730469 91.074219 131.726562 91.046875 C 131.71875 91 131.710938 90.953125 131.703125 90.90625 C 131.703125 90.882812 131.699219 90.863281 131.695312 90.84375 C 131.683594 90.773438 131.671875 90.707031 131.664062 90.636719 C 131.660156 90.625 131.660156 90.613281 131.65625 90.601562 C 131.648438 90.546875 131.636719 90.488281 131.628906 90.429688 C 131.625 90.40625 131.621094 90.378906 131.617188 90.355469 C 131.609375 90.3125 131.601562 90.265625 131.59375 90.222656 C 131.585938 90.195312 131.582031 90.164062 131.578125 90.136719 C 131.570312 90.09375 131.5625 90.054688 131.554688 90.011719 C 131.550781 89.984375 131.542969 89.953125 131.539062 89.925781 C 131.53125 89.882812 131.523438 89.84375 131.515625 89.800781 C 131.511719 89.773438 131.503906 89.742188 131.5 89.710938 C 131.492188 89.671875 131.484375 89.628906 131.476562 89.589844 C 131.46875 89.558594 131.464844 89.53125 131.457031 89.5 C 131.449219 89.457031 131.441406 89.417969 131.433594 89.375 C 131.425781 89.347656 131.421875 89.316406 131.414062 89.289062 C 131.40625 89.242188 131.398438 89.199219 131.386719 89.15625 C 131.382812 89.128906 131.375 89.101562 131.371094 89.074219 C 131.359375 89.023438 131.347656 88.96875 131.335938 88.917969 C 131.332031 88.898438 131.328125 88.878906 131.324219 88.859375 C 131.308594 88.789062 131.292969 88.71875 131.277344 88.648438 C 131.273438 88.628906 131.269531 88.605469 131.265625 88.585938 C 131.253906 88.535156 131.242188 88.484375 131.230469 88.433594 C 131.222656 88.40625 131.21875 88.378906 131.210938 88.347656 C 131.199219 88.304688 131.191406 88.261719 131.179688 88.21875 C 131.171875 88.1875 131.164062 88.15625 131.160156 88.125 C 131.148438 88.085938 131.140625 88.042969 131.128906 88 C 131.121094 87.96875 131.113281 87.9375 131.105469 87.90625 C 131.097656 87.867188 131.085938 87.824219 131.074219 87.785156 C 131.066406 87.75 131.058594 87.71875 131.050781 87.6875 C 131.042969 87.644531 131.03125 87.605469 131.019531 87.5625 C 131.011719 87.53125 131.003906 87.5 130.996094 87.46875 C 130.984375 87.425781 130.976562 87.382812 130.964844 87.339844 C 130.957031 87.3125 130.949219 87.28125 130.941406 87.25 C 130.929688 87.203125 130.917969 87.15625 130.902344 87.113281 C 130.898438 87.085938 130.890625 87.058594 130.882812 87.03125 C 130.867188 86.96875 130.847656 86.902344 130.832031 86.839844 C 130.828125 86.828125 130.824219 86.816406 130.820312 86.800781 C 130.800781 86.730469 130.78125 86.660156 130.761719 86.589844 C 130.753906 86.566406 130.75 86.539062 130.742188 86.511719 C 130.726562 86.464844 130.714844 86.417969 130.699219 86.371094 C 130.691406 86.339844 130.683594 86.308594 130.675781 86.277344 C 130.664062 86.234375 130.648438 86.191406 130.636719 86.148438 C 130.628906 86.113281 130.617188 86.082031 130.609375 86.050781 C 130.597656 86.007812 130.585938 85.964844 130.570312 85.925781 C 130.5625 85.890625 130.550781 85.859375 130.542969 85.824219 C 130.53125 85.78125 130.519531 85.742188 130.503906 85.699219 C 130.496094 85.667969 130.484375 85.632812 130.476562 85.601562 C 130.460938 85.558594 130.449219 85.515625 130.4375 85.472656 C 130.425781 85.441406 130.417969 85.40625 130.40625 85.375 C 130.394531 85.332031 130.378906 85.285156 130.367188 85.242188 C 130.355469 85.210938 130.347656 85.179688 130.335938 85.148438 C 130.320312 85.101562 130.304688 85.050781 130.289062 85 C 130.28125 84.976562 130.273438 84.949219 130.265625 84.925781 C 130.242188 84.851562 130.21875 84.777344 130.191406 84.699219 C 130.1875 84.679688 130.179688 84.660156 130.171875 84.640625 C 130.15625 84.585938 130.136719 84.53125 130.117188 84.472656 C 130.109375 84.445312 130.097656 84.414062 130.089844 84.382812 C 130.074219 84.339844 130.058594 84.292969 130.042969 84.246094 C 130.03125 84.214844 130.019531 84.183594 130.011719 84.148438 C 129.996094 84.105469 129.980469 84.0625 129.964844 84.019531 C 129.953125 83.984375 129.941406 83.953125 129.929688 83.917969 C 129.917969 83.875 129.902344 83.832031 129.886719 83.789062 C 129.875 83.753906 129.863281 83.722656 129.851562 83.6875 C 129.835938 83.644531 129.820312 83.601562 129.804688 83.558594 C 129.792969 83.523438 129.78125 83.492188 129.769531 83.457031 C 129.753906 83.414062 129.738281 83.371094 129.722656 83.324219 C 129.710938 83.292969 129.699219 83.257812 129.6875 83.226562 C 129.671875 83.179688 129.652344 83.132812 129.636719 83.085938 C 129.625 83.058594 129.617188 83.027344 129.605469 82.996094 C 129.582031 82.941406 129.5625 82.882812 129.542969 82.828125 C 129.535156 82.808594 129.527344 82.785156 129.519531 82.765625 C 129.492188 82.691406 129.464844 82.613281 129.433594 82.539062 C 129.425781 82.511719 129.414062 82.488281 129.40625 82.460938 C 129.386719 82.410156 129.367188 82.359375 129.347656 82.304688 C 129.335938 82.273438 129.324219 82.242188 129.3125 82.210938 C 129.292969 82.164062 129.273438 82.121094 129.257812 82.074219 C 129.246094 82.039062 129.230469 82.007812 129.21875 81.972656 C 129.203125 81.929688 129.183594 81.882812 129.167969 81.839844 C 129.152344 81.804688 129.140625 81.773438 129.125 81.738281 C 129.109375 81.695312 129.089844 81.648438 129.074219 81.605469 C 129.058594 81.570312 129.046875 81.535156 129.035156 81.503906 C 129.015625 81.457031 128.996094 81.414062 128.980469 81.367188 C 128.964844 81.335938 128.953125 81.300781 128.9375 81.269531 C 128.921875 81.222656 128.902344 81.175781 128.882812 81.128906 C 128.871094 81.097656 128.855469 81.066406 128.84375 81.035156 C 128.824219 80.980469 128.800781 80.929688 128.78125 80.878906 C 128.769531 80.851562 128.757812 80.824219 128.746094 80.800781 C 128.714844 80.722656 128.683594 80.644531 128.648438 80.566406 C 126.488281 75.417969 123.445312 70.246094 119.855469 65.609375 C 118.125 63.375 116.289062 61.300781 114.398438 59.433594 C 114.339844 59.375 114.277344 59.3125 114.214844 59.253906 C 114.152344 59.191406 114.089844 59.132812 114.027344 59.070312 C 112.167969 57.273438 110.261719 55.683594 108.347656 54.332031 C 108.285156 54.289062 108.222656 54.246094 108.160156 54.203125 C 107.957031 54.058594 107.753906 53.921875 107.546875 53.785156 C 107.464844 53.726562 107.378906 53.671875 107.292969 53.613281 C 107.269531 53.597656 107.242188 53.582031 107.21875 53.566406 C 107.15625 53.523438 107.09375 53.484375 107.035156 53.445312 C 107.007812 53.429688 106.980469 53.410156 106.953125 53.394531 C 106.882812 53.347656 106.816406 53.304688 106.75 53.261719 C 106.730469 53.253906 106.714844 53.242188 106.695312 53.230469 C 106.609375 53.175781 106.527344 53.125 106.441406 53.070312 C 106.421875 53.058594 106.398438 53.042969 106.378906 53.03125 C 106.3125 52.992188 106.25 52.953125 106.183594 52.914062 C 106.15625 52.898438 106.128906 52.878906 106.101562 52.863281 C 106.039062 52.824219 105.976562 52.789062 105.914062 52.75 C 105.890625 52.738281 105.867188 52.722656 105.84375 52.707031 C 105.757812 52.65625 105.671875 52.609375 105.589844 52.558594 C 105.578125 52.554688 105.566406 52.546875 105.558594 52.539062 C 105.484375 52.496094 105.40625 52.453125 105.332031 52.410156 C 105.308594 52.398438 105.28125 52.382812 105.253906 52.367188 C 105.191406 52.332031 105.132812 52.296875 105.070312 52.261719 C 105.042969 52.25 105.019531 52.234375 104.992188 52.21875 C 104.917969 52.179688 104.839844 52.136719 104.765625 52.09375 C 104.753906 52.089844 104.746094 52.085938 104.738281 52.078125 C 104.652344 52.035156 104.566406 51.988281 104.480469 51.941406 C 104.457031 51.929688 104.433594 51.917969 104.414062 51.90625 C 104.347656 51.871094 104.285156 51.839844 104.222656 51.804688 C 104.195312 51.792969 104.167969 51.777344 104.140625 51.765625 C 104.078125 51.730469 104.011719 51.699219 103.945312 51.664062 C 103.925781 51.652344 103.90625 51.644531 103.886719 51.632812 C 103.800781 51.589844 103.714844 51.546875 103.628906 51.507812 C 103.613281 51.496094 103.597656 51.488281 103.578125 51.480469 C 103.511719 51.449219 103.441406 51.414062 103.375 51.382812 C 103.347656 51.367188 103.320312 51.355469 103.292969 51.34375 C 103.234375 51.3125 103.171875 51.285156 103.109375 51.253906 C 103.09375 51.246094 103.078125 51.238281 103.058594 51.230469 C 126.027344 55.167969 144.085938 72.910156 144.804688 93.675781 C 143.304688 92.894531 140.613281 91.695312 138.21875 91.695312 Z M 128.476562 92.699219 C 127.328125 92.226562 126.15625 91.851562 125 91.582031 C 123.542969 91.242188 122.101562 91.070312 120.710938 91.070312 C 119.332031 91.070312 117.773438 91.238281 116.082031 91.574219 C 114.742188 91.84375 113.3125 92.214844 111.832031 92.679688 C 110.445312 93.117188 109.28125 93.550781 108.511719 93.855469 C 108.507812 93.824219 108.507812 93.792969 108.507812 93.761719 C 108.507812 93.753906 108.503906 93.746094 108.503906 93.734375 C 108.503906 93.703125 108.503906 93.671875 108.5 93.640625 C 108.5 93.632812 108.5 93.625 108.5 93.617188 C 108.5 93.582031 108.496094 93.550781 108.496094 93.519531 C 108.496094 93.511719 108.496094 93.503906 108.496094 93.496094 C 108.492188 93.460938 108.492188 93.425781 108.488281 93.394531 C 108.488281 93.386719 108.488281 93.378906 108.488281 93.371094 C 108.488281 93.335938 108.484375 93.300781 108.484375 93.265625 C 108.484375 93.257812 108.484375 93.253906 108.484375 93.25 C 108.480469 93.210938 108.480469 93.171875 108.476562 93.132812 C 108.476562 93.132812 108.476562 93.128906 108.476562 93.128906 C 108.203125 87.976562 106.945312 78.082031 104.808594 69.019531 C 103.4375 63.21875 101.910156 58.582031 100.269531 55.246094 C 99.34375 53.363281 98.367188 51.882812 97.371094 50.847656 C 97.429688 50.859375 97.488281 50.875 97.542969 50.886719 C 97.558594 50.890625 97.570312 50.894531 97.585938 50.894531 C 97.632812 50.90625 97.679688 50.917969 97.726562 50.929688 C 97.75 50.933594 97.769531 50.9375 97.792969 50.945312 C 97.832031 50.953125 97.871094 50.960938 97.910156 50.972656 C 97.933594 50.976562 97.957031 50.984375 97.980469 50.988281 C 98.019531 51 98.058594 51.007812 98.097656 51.019531 C 98.121094 51.023438 98.144531 51.03125 98.164062 51.035156 C 98.207031 51.046875 98.25 51.058594 98.292969 51.070312 C 98.3125 51.074219 98.332031 51.078125 98.351562 51.085938 C 98.410156 51.101562 98.472656 51.117188 98.53125 51.132812 C 98.539062 51.136719 98.542969 51.136719 98.546875 51.136719 C 98.601562 51.152344 98.660156 51.167969 98.714844 51.1875 C 98.738281 51.191406 98.757812 51.199219 98.777344 51.203125 C 98.820312 51.214844 98.859375 51.226562 98.902344 51.238281 C 98.925781 51.246094 98.949219 51.253906 98.972656 51.261719 C 99.011719 51.269531 99.046875 51.28125 99.085938 51.296875 C 99.109375 51.300781 99.136719 51.308594 99.160156 51.316406 C 99.199219 51.328125 99.238281 51.339844 99.277344 51.355469 C 99.300781 51.359375 99.320312 51.367188 99.34375 51.375 C 99.394531 51.390625 99.445312 51.40625 99.492188 51.421875 C 99.503906 51.425781 99.515625 51.429688 99.527344 51.433594 C 99.589844 51.453125 99.652344 51.472656 99.710938 51.496094 C 99.730469 51.5 99.75 51.507812 99.765625 51.511719 C 99.808594 51.527344 99.855469 51.542969 99.898438 51.558594 C 99.921875 51.566406 99.941406 51.574219 99.964844 51.582031 C 100.003906 51.59375 100.042969 51.609375 100.082031 51.621094 C 100.109375 51.628906 100.132812 51.640625 100.15625 51.648438 C 100.195312 51.660156 100.234375 51.675781 100.273438 51.691406 C 100.296875 51.699219 100.320312 51.707031 100.34375 51.714844 C 100.386719 51.730469 100.429688 51.746094 100.476562 51.765625 C 100.492188 51.769531 100.511719 51.777344 100.527344 51.785156 C 100.589844 51.808594 100.652344 51.828125 100.710938 51.855469 C 100.726562 51.859375 100.738281 51.863281 100.753906 51.867188 C 100.800781 51.886719 100.851562 51.90625 100.898438 51.925781 C 100.921875 51.933594 100.941406 51.941406 100.964844 51.953125 C 101.003906 51.96875 101.046875 51.984375 101.085938 52 C 101.109375 52.007812 101.132812 52.019531 101.15625 52.027344 C 101.195312 52.042969 101.234375 52.0625 101.273438 52.078125 C 101.296875 52.085938 101.320312 52.097656 101.347656 52.105469 C 101.386719 52.125 101.429688 52.140625 101.46875 52.15625 C 101.488281 52.167969 101.511719 52.175781 101.53125 52.183594 C 101.589844 52.207031 101.648438 52.234375 101.707031 52.257812 C 101.710938 52.261719 101.714844 52.261719 101.71875 52.265625 C 101.78125 52.289062 101.839844 52.316406 101.902344 52.34375 C 101.925781 52.355469 101.945312 52.363281 101.964844 52.371094 C 102.007812 52.390625 102.046875 52.410156 102.089844 52.425781 C 102.113281 52.4375 102.136719 52.449219 102.164062 52.460938 C 102.199219 52.476562 102.238281 52.496094 102.277344 52.511719 C 102.304688 52.523438 102.328125 52.535156 102.351562 52.546875 C 102.390625 52.566406 102.429688 52.582031 102.46875 52.601562 C 102.492188 52.613281 102.515625 52.625 102.539062 52.632812 C 102.585938 52.65625 102.632812 52.679688 102.679688 52.703125 C 102.695312 52.707031 102.710938 52.714844 102.726562 52.722656 C 102.789062 52.753906 102.847656 52.78125 102.910156 52.8125 C 102.929688 52.820312 102.945312 52.832031 102.964844 52.839844 C 103.007812 52.863281 103.054688 52.882812 103.097656 52.90625 C 103.121094 52.917969 103.144531 52.929688 103.167969 52.941406 C 103.207031 52.960938 103.246094 52.980469 103.285156 53 C 103.3125 53.011719 103.335938 53.023438 103.359375 53.039062 C 103.398438 53.058594 103.4375 53.078125 103.476562 53.097656 C 103.5 53.109375 103.523438 53.121094 103.550781 53.132812 C 103.589844 53.15625 103.632812 53.179688 103.675781 53.199219 C 103.695312 53.210938 103.714844 53.222656 103.738281 53.230469 C 103.796875 53.265625 103.859375 53.296875 103.921875 53.332031 C 103.933594 53.335938 103.945312 53.34375 103.957031 53.351562 C 104.007812 53.378906 104.058594 53.40625 104.109375 53.429688 C 104.128906 53.445312 104.152344 53.457031 104.175781 53.46875 C 104.214844 53.492188 104.257812 53.511719 104.296875 53.535156 C 104.320312 53.546875 104.34375 53.5625 104.371094 53.578125 C 104.410156 53.597656 104.445312 53.617188 104.484375 53.640625 C 104.511719 53.65625 104.535156 53.667969 104.558594 53.683594 C 104.601562 53.707031 104.640625 53.726562 104.679688 53.75 C 104.703125 53.765625 104.726562 53.777344 104.746094 53.789062 C 104.800781 53.820312 104.851562 53.847656 104.902344 53.878906 C 104.914062 53.886719 104.925781 53.890625 104.933594 53.898438 C 104.996094 53.933594 105.058594 53.96875 105.121094 54.007812 C 105.140625 54.019531 105.160156 54.03125 105.183594 54.042969 C 105.222656 54.070312 105.265625 54.09375 105.308594 54.117188 C 105.332031 54.132812 105.355469 54.148438 105.378906 54.164062 C 105.417969 54.1875 105.457031 54.210938 105.496094 54.234375 C 105.519531 54.25 105.546875 54.261719 105.570312 54.277344 C 105.609375 54.300781 105.648438 54.328125 105.6875 54.351562 C 105.710938 54.367188 105.734375 54.378906 105.757812 54.394531 C 105.804688 54.421875 105.847656 54.449219 105.890625 54.476562 C 105.910156 54.488281 105.929688 54.5 105.945312 54.511719 C 106.007812 54.550781 106.070312 54.589844 106.132812 54.628906 C 106.148438 54.640625 106.167969 54.652344 106.183594 54.664062 C 106.226562 54.691406 106.273438 54.722656 106.320312 54.75 C 106.34375 54.765625 106.367188 54.78125 106.390625 54.796875 C 106.429688 54.820312 106.46875 54.847656 106.507812 54.871094 C 106.53125 54.890625 106.558594 54.90625 106.582031 54.921875 C 106.621094 54.949219 106.660156 54.972656 106.695312 55 C 106.722656 55.015625 106.746094 55.03125 106.769531 55.046875 C 106.8125 55.074219 106.851562 55.101562 106.894531 55.128906 C 106.914062 55.144531 106.9375 55.160156 106.957031 55.175781 C 107.019531 55.214844 107.082031 55.257812 107.144531 55.300781 C 107.152344 55.304688 107.160156 55.3125 107.167969 55.320312 C 107.222656 55.355469 107.277344 55.390625 107.328125 55.429688 C 107.351562 55.445312 107.375 55.460938 107.394531 55.476562 C 107.4375 55.503906 107.476562 55.53125 107.515625 55.558594 C 107.542969 55.578125 107.566406 55.59375 107.589844 55.613281 C 107.628906 55.640625 107.667969 55.667969 107.707031 55.695312 C 107.730469 55.710938 107.753906 55.730469 107.78125 55.746094 C 107.820312 55.777344 107.859375 55.804688 107.898438 55.832031 C 107.921875 55.847656 107.945312 55.867188 107.96875 55.882812 C 108.015625 55.917969 108.066406 55.953125 108.113281 55.988281 C 108.125 56 108.140625 56.007812 108.15625 56.019531 C 108.214844 56.0625 108.277344 56.109375 108.339844 56.15625 C 108.359375 56.167969 108.378906 56.183594 108.398438 56.199219 C 108.441406 56.230469 108.484375 56.261719 108.523438 56.292969 C 108.550781 56.3125 108.574219 56.332031 108.597656 56.347656 C 108.636719 56.378906 108.675781 56.40625 108.710938 56.4375 C 108.738281 56.457031 108.761719 56.472656 108.789062 56.492188 C 108.828125 56.523438 108.863281 56.550781 108.902344 56.582031 C 108.925781 56.601562 108.953125 56.617188 108.976562 56.636719 C 109.019531 56.671875 109.0625 56.703125 109.105469 56.738281 C 109.125 56.753906 109.140625 56.765625 109.160156 56.78125 C 109.222656 56.832031 109.285156 56.878906 109.34375 56.925781 C 109.359375 56.9375 109.375 56.953125 109.390625 56.964844 C 109.4375 57 109.484375 57.039062 109.53125 57.074219 C 109.554688 57.09375 109.578125 57.113281 109.601562 57.128906 C 109.640625 57.160156 109.679688 57.191406 109.71875 57.222656 C 109.742188 57.246094 109.769531 57.265625 109.792969 57.285156 C 109.832031 57.316406 109.867188 57.347656 109.90625 57.378906 C 109.929688 57.398438 109.957031 57.417969 109.980469 57.4375 C 110.019531 57.472656 110.058594 57.503906 110.101562 57.539062 C 110.121094 57.554688 110.144531 57.574219 110.164062 57.589844 C 110.222656 57.636719 110.277344 57.683594 110.335938 57.734375 C 110.34375 57.738281 110.351562 57.746094 110.359375 57.753906 C 110.417969 57.800781 110.476562 57.851562 110.535156 57.902344 C 110.554688 57.917969 110.578125 57.9375 110.597656 57.953125 C 110.636719 57.988281 110.679688 58.023438 110.71875 58.058594 C 110.742188 58.078125 110.769531 58.101562 110.792969 58.121094 C 110.832031 58.152344 110.867188 58.1875 110.90625 58.21875 C 110.929688 58.242188 110.957031 58.261719 110.980469 58.285156 C 111.019531 58.316406 111.058594 58.351562 111.097656 58.386719 C 111.121094 58.40625 111.144531 58.425781 111.164062 58.445312 C 111.210938 58.484375 111.257812 58.527344 111.300781 58.566406 C 111.316406 58.582031 111.335938 58.59375 111.351562 58.609375 C 111.410156 58.664062 111.472656 58.71875 111.53125 58.769531 C 111.550781 58.789062 111.570312 58.804688 111.585938 58.820312 C 111.628906 58.859375 111.671875 58.898438 111.714844 58.9375 C 111.738281 58.957031 111.761719 58.980469 111.789062 59 C 111.824219 59.035156 111.863281 59.070312 111.902344 59.105469 C 111.925781 59.128906 111.949219 59.152344 111.976562 59.171875 C 112.011719 59.207031 112.050781 59.242188 112.089844 59.277344 C 112.113281 59.300781 112.136719 59.324219 112.160156 59.34375 C 112.203125 59.382812 112.242188 59.421875 112.285156 59.460938 C 112.304688 59.480469 112.324219 59.496094 112.34375 59.515625 C 112.40625 59.574219 112.464844 59.628906 112.523438 59.6875 C 112.539062 59.699219 112.550781 59.710938 112.5625 59.722656 C 112.613281 59.769531 112.660156 59.816406 112.707031 59.859375 C 112.730469 59.882812 112.753906 59.902344 112.773438 59.925781 C 112.8125 59.960938 112.851562 60 112.890625 60.039062 C 112.917969 60.058594 112.941406 60.082031 112.964844 60.105469 C 113.003906 60.144531 113.039062 60.179688 113.078125 60.21875 C 113.101562 60.242188 113.125 60.261719 113.148438 60.285156 C 113.1875 60.324219 113.226562 60.363281 113.265625 60.402344 C 113.289062 60.425781 113.3125 60.445312 113.332031 60.46875 C 113.382812 60.519531 113.433594 60.570312 113.488281 60.621094 C 113.496094 60.628906 113.503906 60.636719 113.515625 60.648438 C 113.574219 60.707031 113.632812 60.765625 113.695312 60.828125 C 113.714844 60.847656 113.734375 60.867188 113.753906 60.890625 C 113.796875 60.929688 113.835938 60.972656 113.875 61.011719 C 113.898438 61.035156 113.921875 61.058594 113.945312 61.082031 C 113.984375 61.121094 114.023438 61.160156 114.058594 61.199219 C 114.082031 61.222656 114.105469 61.25 114.132812 61.273438 C 114.167969 61.3125 114.207031 61.351562 114.246094 61.390625 C 114.269531 61.414062 114.289062 61.4375 114.3125 61.460938 C 114.355469 61.507812 114.402344 61.550781 114.445312 61.597656 C 114.460938 61.617188 114.476562 61.632812 114.492188 61.648438 C 114.554688 61.710938 114.613281 61.777344 114.671875 61.839844 C 114.6875 61.855469 114.703125 61.871094 114.722656 61.890625 C 114.765625 61.9375 114.808594 61.984375 114.851562 62.03125 C 114.875 62.054688 114.898438 62.078125 114.921875 62.101562 C 114.957031 62.144531 114.996094 62.183594 115.035156 62.226562 C 115.058594 62.25 115.082031 62.277344 115.105469 62.300781 C 115.140625 62.339844 115.179688 62.382812 115.21875 62.421875 C 115.242188 62.449219 115.261719 62.472656 115.285156 62.5 C 115.328125 62.542969 115.367188 62.585938 115.40625 62.632812 C 115.425781 62.652344 115.445312 62.671875 115.464844 62.695312 C 115.523438 62.761719 115.585938 62.824219 115.644531 62.890625 C 115.652344 62.898438 115.660156 62.910156 115.667969 62.917969 C 115.71875 62.976562 115.769531 63.03125 115.824219 63.089844 C 115.84375 63.113281 115.863281 63.136719 115.882812 63.160156 C 115.921875 63.203125 115.960938 63.25 116 63.292969 C 116.023438 63.320312 116.046875 63.34375 116.070312 63.371094 C 116.105469 63.414062 116.144531 63.457031 116.183594 63.5 C 116.203125 63.523438 116.226562 63.550781 116.25 63.578125 C 116.289062 63.621094 116.328125 63.664062 116.367188 63.710938 C 116.386719 63.734375 116.410156 63.757812 116.429688 63.78125 C 116.476562 63.835938 116.527344 63.894531 116.574219 63.949219 C 116.585938 63.960938 116.59375 63.976562 116.605469 63.988281 C 116.664062 64.054688 116.722656 64.125 116.78125 64.195312 C 116.800781 64.214844 116.816406 64.238281 116.835938 64.257812 C 116.878906 64.304688 116.917969 64.355469 116.960938 64.402344 C 116.980469 64.429688 117.003906 64.457031 117.023438 64.480469 C 117.0625 64.527344 117.101562 64.570312 117.136719 64.617188 C 117.160156 64.644531 117.183594 64.671875 117.207031 64.695312 C 117.242188 64.742188 117.28125 64.789062 117.316406 64.832031 C 117.339844 64.859375 117.363281 64.886719 117.382812 64.910156 C 117.425781 64.960938 117.46875 65.015625 117.511719 65.066406 C 117.527344 65.085938 117.542969 65.105469 117.558594 65.125 C 117.617188 65.195312 117.675781 65.265625 117.734375 65.339844 C 117.746094 65.355469 117.757812 65.371094 117.769531 65.386719 C 117.816406 65.441406 117.863281 65.5 117.90625 65.554688 C 117.929688 65.582031 117.949219 65.605469 117.96875 65.632812 C 118.007812 65.679688 118.046875 65.726562 118.082031 65.773438 C 118.105469 65.800781 118.128906 65.832031 118.148438 65.859375 C 118.1875 65.90625 118.222656 65.953125 118.261719 65.996094 C 118.28125 66.023438 118.304688 66.054688 118.324219 66.082031 C 118.367188 66.128906 118.40625 66.179688 118.445312 66.230469 C 118.460938 66.253906 118.480469 66.277344 118.5 66.300781 C 118.558594 66.375 118.617188 66.449219 118.671875 66.523438 C 118.726562 66.59375 118.78125 66.667969 118.835938 66.738281 C 118.855469 66.761719 118.875 66.785156 118.890625 66.808594 C 118.929688 66.855469 118.964844 66.902344 119 66.949219 C 119.023438 66.980469 119.042969 67.007812 119.066406 67.035156 C 119.097656 67.078125 119.128906 67.121094 119.164062 67.164062 C 119.183594 67.195312 119.207031 67.226562 119.230469 67.253906 C 119.261719 67.296875 119.292969 67.339844 119.324219 67.378906 C 119.347656 67.410156 119.371094 67.441406 119.394531 67.472656 C 119.425781 67.511719 119.453125 67.554688 119.484375 67.59375 C 119.507812 67.625 119.53125 67.660156 119.554688 67.691406 C 119.585938 67.730469 119.613281 67.769531 119.644531 67.8125 C 119.667969 67.84375 119.691406 67.875 119.714844 67.910156 C 119.746094 67.949219 119.773438 67.988281 119.804688 68.027344 C 119.828125 68.058594 119.851562 68.09375 119.875 68.125 C 119.902344 68.164062 119.933594 68.203125 119.960938 68.246094 C 119.984375 68.277344 120.007812 68.308594 120.03125 68.34375 C 120.0625 68.382812 120.089844 68.421875 120.117188 68.460938 C 120.140625 68.496094 120.164062 68.527344 120.1875 68.5625 C 120.21875 68.601562 120.246094 68.640625 120.273438 68.683594 C 120.296875 68.714844 120.320312 68.746094 120.34375 68.78125 C 120.375 68.820312 120.402344 68.859375 120.429688 68.902344 C 120.453125 68.933594 120.476562 68.964844 120.5 69 C 120.527344 69.039062 120.558594 69.082031 120.585938 69.121094 C 120.609375 69.152344 120.632812 69.1875 120.652344 69.21875 C 120.683594 69.261719 120.710938 69.300781 120.742188 69.34375 C 120.761719 69.375 120.785156 69.40625 120.804688 69.4375 C 120.835938 69.480469 120.867188 69.523438 120.894531 69.566406 C 120.917969 69.597656 120.9375 69.628906 120.957031 69.65625 C 120.988281 69.703125 121.019531 69.75 121.050781 69.792969 C 121.070312 69.824219 121.089844 69.851562 121.109375 69.878906 C 121.140625 69.929688 121.175781 69.980469 121.210938 70.027344 C 121.226562 70.050781 121.242188 70.074219 121.257812 70.097656 C 121.300781 70.160156 121.339844 70.222656 121.382812 70.285156 C 121.390625 70.296875 121.398438 70.308594 121.40625 70.320312 C 121.457031 70.394531 121.507812 70.46875 121.554688 70.546875 C 121.5625 70.554688 121.570312 70.566406 121.578125 70.578125 C 121.617188 70.640625 121.660156 70.703125 121.703125 70.765625 C 121.71875 70.789062 121.734375 70.8125 121.75 70.835938 C 121.78125 70.886719 121.816406 70.9375 121.847656 70.992188 C 121.867188 71.015625 121.882812 71.042969 121.902344 71.070312 C 121.933594 71.117188 121.964844 71.167969 121.992188 71.214844 C 122.011719 71.242188 122.03125 71.273438 122.050781 71.300781 C 122.078125 71.347656 122.109375 71.390625 122.136719 71.4375 C 122.15625 71.46875 122.175781 71.5 122.195312 71.527344 C 122.222656 71.574219 122.253906 71.617188 122.28125 71.660156 C 122.300781 71.691406 122.320312 71.722656 122.339844 71.753906 C 122.367188 71.800781 122.394531 71.84375 122.421875 71.886719 C 122.441406 71.917969 122.460938 71.949219 122.480469 71.980469 C 122.507812 72.023438 122.535156 72.066406 122.5625 72.109375 C 122.582031 72.144531 122.601562 72.175781 122.625 72.207031 C 122.648438 72.25 122.675781 72.292969 122.703125 72.335938 C 122.722656 72.367188 122.742188 72.402344 122.761719 72.433594 C 122.789062 72.476562 122.816406 72.519531 122.84375 72.5625 C 122.863281 72.59375 122.882812 72.625 122.902344 72.65625 C 122.929688 72.703125 122.953125 72.746094 122.980469 72.789062 C 123 72.820312 123.019531 72.851562 123.039062 72.882812 C 123.066406 72.929688 123.09375 72.972656 123.121094 73.019531 C 123.136719 73.046875 123.15625 73.078125 123.175781 73.109375 C 123.203125 73.15625 123.230469 73.199219 123.257812 73.246094 C 123.273438 73.277344 123.292969 73.304688 123.308594 73.335938 C 123.339844 73.382812 123.367188 73.429688 123.394531 73.476562 C 123.410156 73.503906 123.425781 73.535156 123.445312 73.5625 C 123.472656 73.609375 123.5 73.660156 123.53125 73.707031 C 123.546875 73.734375 123.5625 73.761719 123.578125 73.789062 C 123.609375 73.84375 123.640625 73.894531 123.671875 73.949219 C 123.683594 73.96875 123.695312 73.992188 123.710938 74.015625 C 123.746094 74.078125 123.78125 74.140625 123.816406 74.203125 C 123.824219 74.214844 123.832031 74.230469 123.839844 74.242188 C 123.929688 74.394531 124.015625 74.546875 124.101562 74.703125 C 124.109375 74.714844 124.117188 74.726562 124.121094 74.738281 C 124.160156 74.800781 124.195312 74.867188 124.230469 74.929688 C 124.242188 74.953125 124.253906 74.972656 124.265625 74.996094 C 124.296875 75.046875 124.324219 75.101562 124.355469 75.15625 C 124.371094 75.183594 124.382812 75.207031 124.398438 75.234375 C 124.425781 75.285156 124.453125 75.335938 124.480469 75.386719 C 124.496094 75.414062 124.511719 75.441406 124.527344 75.46875 C 124.554688 75.515625 124.578125 75.566406 124.605469 75.613281 C 124.621094 75.640625 124.636719 75.671875 124.652344 75.699219 C 124.679688 75.746094 124.703125 75.792969 124.730469 75.84375 C 124.746094 75.871094 124.761719 75.902344 124.777344 75.929688 C 124.800781 75.976562 124.828125 76.023438 124.851562 76.070312 C 124.867188 76.101562 124.882812 76.128906 124.898438 76.160156 C 124.925781 76.207031 124.949219 76.253906 124.972656 76.300781 C 124.988281 76.328125 125.003906 76.359375 125.019531 76.390625 C 125.046875 76.4375 125.070312 76.480469 125.09375 76.527344 C 125.109375 76.558594 125.125 76.589844 125.140625 76.621094 C 125.164062 76.664062 125.1875 76.710938 125.210938 76.757812 C 125.226562 76.789062 125.242188 76.816406 125.257812 76.847656 C 125.285156 76.894531 125.308594 76.941406 125.332031 76.988281 C 125.347656 77.019531 125.363281 77.046875 125.375 77.078125 C 125.402344 77.125 125.425781 77.171875 125.449219 77.21875 C 125.464844 77.246094 125.476562 77.277344 125.492188 77.304688 C 125.515625 77.355469 125.542969 77.402344 125.566406 77.453125 C 125.578125 77.480469 125.59375 77.507812 125.605469 77.535156 C 125.632812 77.585938 125.65625 77.636719 125.683594 77.6875 C 125.695312 77.710938 125.707031 77.738281 125.722656 77.761719 C 125.746094 77.816406 125.773438 77.871094 125.800781 77.925781 C 125.8125 77.945312 125.824219 77.96875 125.832031 77.992188 C 125.863281 78.050781 125.894531 78.113281 125.921875 78.171875 C 125.929688 78.1875 125.9375 78.203125 125.945312 78.21875 C 126.054688 78.449219 126.167969 78.679688 126.273438 78.910156 C 126.28125 78.925781 126.289062 78.9375 126.292969 78.953125 C 126.324219 79.015625 126.351562 79.078125 126.382812 79.140625 C 126.390625 79.160156 126.402344 79.179688 126.410156 79.203125 C 126.4375 79.257812 126.460938 79.3125 126.488281 79.367188 C 126.5 79.390625 126.507812 79.417969 126.519531 79.441406 C 126.542969 79.492188 126.566406 79.542969 126.589844 79.59375 C 126.601562 79.621094 126.613281 79.648438 126.625 79.675781 C 126.648438 79.722656 126.671875 79.773438 126.695312 79.824219 C 126.707031 79.851562 126.71875 79.878906 126.730469 79.90625 C 126.753906 79.953125 126.773438 80.003906 126.796875 80.050781 C 126.808594 80.078125 126.820312 80.109375 126.832031 80.136719 C 126.855469 80.183594 126.875 80.230469 126.894531 80.277344 C 126.910156 80.308594 126.921875 80.335938 126.933594 80.363281 C 126.953125 80.410156 126.976562 80.460938 126.996094 80.507812 C 127.007812 80.535156 127.019531 80.566406 127.035156 80.59375 C 127.054688 80.640625 127.074219 80.6875 127.09375 80.734375 C 127.105469 80.761719 127.117188 80.792969 127.132812 80.820312 C 127.152344 80.867188 127.171875 80.914062 127.191406 80.960938 C 127.203125 80.992188 127.214844 81.019531 127.226562 81.046875 C 127.246094 81.097656 127.269531 81.144531 127.289062 81.191406 C 127.300781 81.21875 127.3125 81.246094 127.324219 81.277344 C 127.34375 81.324219 127.363281 81.371094 127.382812 81.421875 C 127.394531 81.449219 127.40625 81.476562 127.417969 81.5 C 127.4375 81.550781 127.457031 81.601562 127.476562 81.652344 C 127.488281 81.675781 127.5 81.703125 127.507812 81.726562 C 127.53125 81.78125 127.550781 81.832031 127.574219 81.886719 C 127.582031 81.90625 127.589844 81.929688 127.601562 81.953125 C 127.621094 82.011719 127.644531 82.066406 127.667969 82.125 C 127.675781 82.144531 127.683594 82.160156 127.691406 82.179688 C 127.714844 82.246094 127.742188 82.3125 127.769531 82.378906 C 127.773438 82.390625 127.777344 82.398438 127.777344 82.40625 C 127.839844 82.558594 127.898438 82.710938 127.953125 82.863281 C 127.957031 82.867188 127.960938 82.871094 127.960938 82.878906 C 127.988281 82.945312 128.011719 83.015625 128.039062 83.085938 C 128.046875 83.105469 128.054688 83.121094 128.058594 83.140625 C 128.082031 83.195312 128.101562 83.253906 128.121094 83.308594 C 128.132812 83.332031 128.140625 83.355469 128.148438 83.378906 C 128.167969 83.429688 128.1875 83.480469 128.203125 83.535156 C 128.214844 83.558594 128.222656 83.585938 128.234375 83.609375 C 128.25 83.660156 128.269531 83.707031 128.285156 83.757812 C 128.296875 83.785156 128.304688 83.808594 128.316406 83.835938 C 128.332031 83.886719 128.347656 83.933594 128.363281 83.980469 C 128.375 84.007812 128.386719 84.035156 128.394531 84.0625 C 128.410156 84.109375 128.425781 84.15625 128.441406 84.203125 C 128.453125 84.230469 128.464844 84.257812 128.472656 84.289062 C 128.488281 84.332031 128.503906 84.378906 128.519531 84.425781 C 128.53125 84.453125 128.539062 84.480469 128.550781 84.511719 C 128.566406 84.554688 128.582031 84.601562 128.597656 84.648438 C 128.605469 84.675781 128.617188 84.703125 128.625 84.734375 C 128.640625 84.777344 128.65625 84.824219 128.671875 84.867188 C 128.679688 84.898438 128.6875 84.925781 128.699219 84.953125 C 128.714844 85 128.730469 85.046875 128.742188 85.089844 C 128.753906 85.121094 128.761719 85.148438 128.769531 85.175781 C 128.785156 85.222656 128.800781 85.265625 128.816406 85.3125 C 128.824219 85.339844 128.832031 85.367188 128.84375 85.394531 C 128.855469 85.441406 128.871094 85.488281 128.886719 85.535156 C 128.894531 85.5625 128.902344 85.589844 128.910156 85.617188 C 128.925781 85.664062 128.941406 85.710938 128.957031 85.757812 C 128.964844 85.785156 128.972656 85.808594 128.980469 85.835938 C 128.996094 85.886719 129.011719 85.9375 129.027344 85.984375 C 129.03125 86.007812 129.039062 86.03125 129.046875 86.054688 C 129.0625 86.109375 129.082031 86.167969 129.097656 86.222656 C 129.101562 86.238281 129.105469 86.253906 129.113281 86.273438 C 129.175781 86.492188 129.242188 86.710938 129.300781 86.925781 C 129.304688 86.945312 129.3125 86.960938 129.316406 86.980469 C 129.332031 87.035156 129.347656 87.089844 129.359375 87.144531 C 129.367188 87.167969 129.375 87.1875 129.378906 87.210938 C 129.394531 87.261719 129.40625 87.308594 129.417969 87.359375 C 129.425781 87.382812 129.433594 87.410156 129.441406 87.433594 C 129.453125 87.480469 129.464844 87.527344 129.476562 87.574219 C 129.484375 87.601562 129.492188 87.628906 129.496094 87.65625 C 129.507812 87.699219 129.519531 87.742188 129.53125 87.785156 C 129.539062 87.816406 129.546875 87.84375 129.554688 87.871094 C 129.5625 87.914062 129.574219 87.957031 129.585938 88 C 129.59375 88.027344 129.601562 88.058594 129.609375 88.085938 C 129.617188 88.128906 129.628906 88.171875 129.636719 88.210938 C 129.644531 88.242188 129.652344 88.269531 129.660156 88.300781 C 129.671875 88.34375 129.679688 88.382812 129.691406 88.425781 C 129.695312 88.453125 129.703125 88.484375 129.710938 88.511719 C 129.71875 88.554688 129.730469 88.59375 129.738281 88.636719 C 129.746094 88.664062 129.753906 88.695312 129.761719 88.726562 C 129.769531 88.765625 129.777344 88.804688 129.789062 88.847656 C 129.792969 88.875 129.800781 88.90625 129.808594 88.9375 C 129.816406 88.976562 129.828125 89.015625 129.835938 89.058594 C 129.839844 89.085938 129.847656 89.117188 129.855469 89.144531 C 129.863281 89.1875 129.871094 89.226562 129.882812 89.269531 C 129.886719 89.296875 129.894531 89.324219 129.898438 89.355469 C 129.910156 89.394531 129.917969 89.4375 129.925781 89.480469 C 129.929688 89.507812 129.9375 89.535156 129.941406 89.5625 C 129.953125 89.605469 129.960938 89.648438 129.96875 89.691406 C 129.972656 89.71875 129.980469 89.742188 129.984375 89.769531 C 129.992188 89.816406 130.003906 89.859375 130.011719 89.90625 C 130.015625 89.929688 130.019531 89.953125 130.023438 89.976562 C 130.035156 90.027344 130.042969 90.078125 130.054688 90.125 C 130.058594 90.144531 130.0625 90.164062 130.0625 90.183594 C 130.089844 90.320312 130.113281 90.457031 130.136719 90.59375 C 130.140625 90.613281 130.144531 90.628906 130.148438 90.648438 C 130.15625 90.699219 130.164062 90.746094 130.171875 90.796875 C 130.175781 90.820312 130.179688 90.847656 130.183594 90.871094 C 130.191406 90.914062 130.199219 90.957031 130.207031 91 C 130.210938 91.027344 130.214844 91.054688 130.21875 91.082031 C 130.222656 91.121094 130.230469 91.160156 130.238281 91.199219 C 130.242188 91.230469 130.246094 91.257812 130.25 91.285156 C 130.253906 91.324219 130.261719 91.363281 130.265625 91.402344 C 130.269531 91.429688 130.273438 91.460938 130.277344 91.488281 C 130.285156 91.527344 130.289062 91.5625 130.292969 91.601562 C 130.300781 91.632812 130.304688 91.660156 130.308594 91.691406 C 130.3125 91.726562 130.316406 91.761719 130.320312 91.800781 C 130.324219 91.832031 130.328125 91.859375 130.332031 91.890625 C 130.339844 91.925781 130.34375 91.960938 130.347656 91.996094 C 130.351562 92.027344 130.355469 92.058594 130.359375 92.089844 C 130.363281 92.125 130.367188 92.160156 130.371094 92.195312 C 130.375 92.226562 130.378906 92.257812 130.382812 92.285156 C 130.386719 92.320312 130.390625 92.355469 130.394531 92.390625 C 130.394531 92.421875 130.398438 92.453125 130.402344 92.484375 C 130.40625 92.519531 130.410156 92.550781 130.414062 92.585938 C 130.417969 92.617188 130.417969 92.648438 130.421875 92.679688 C 130.425781 92.710938 130.429688 92.746094 130.433594 92.78125 C 130.4375 92.8125 130.4375 92.84375 130.441406 92.871094 C 130.445312 92.90625 130.449219 92.941406 130.449219 92.976562 C 130.453125 93.003906 130.457031 93.035156 130.457031 93.066406 C 130.460938 93.101562 130.464844 93.136719 130.464844 93.167969 C 130.46875 93.199219 130.472656 93.226562 130.472656 93.257812 C 130.476562 93.292969 130.480469 93.328125 130.480469 93.363281 C 130.484375 93.390625 130.484375 93.421875 130.488281 93.449219 C 130.488281 93.484375 130.492188 93.519531 130.496094 93.558594 C 130.496094 93.585938 130.5 93.613281 130.5 93.640625 C 130.5 93.640625 130.5 93.644531 130.5 93.644531 C 129.972656 93.367188 129.289062 93.035156 128.476562 92.699219 Z M 104.300781 92.675781 C 102.859375 92.207031 101.316406 91.835938 99.714844 91.570312 C 98.398438 91.351562 97.039062 91.203125 95.652344 91.128906 C 95.390625 91.113281 95.132812 91.101562 94.867188 91.09375 C 94.609375 91.085938 94.347656 91.078125 94.085938 91.074219 C 93.890625 91.070312 93.695312 91.070312 93.5 91.070312 C 92.792969 91.070312 92.085938 91.089844 91.390625 91.125 C 91.125 91.140625 90.867188 91.15625 90.605469 91.175781 C 90.34375 91.195312 90.082031 91.214844 89.820312 91.242188 C 88.960938 91.324219 88.113281 91.433594 87.285156 91.570312 C 85.683594 91.835938 84.140625 92.207031 82.699219 92.675781 C 81.515625 93.058594 80.597656 93.445312 80 93.71875 C 80.203125 88.835938 81.460938 78.667969 83.660156 69.363281 C 85 63.671875 86.488281 59.144531 88.082031 55.90625 C 88.96875 54.109375 89.882812 52.726562 90.796875 51.804688 C 90.992188 51.605469 91.1875 51.429688 91.386719 51.273438 C 91.644531 51.066406 91.90625 50.898438 92.164062 50.765625 C 92.417969 50.636719 92.675781 50.542969 92.929688 50.484375 C 93.121094 50.441406 93.3125 50.421875 93.503906 50.421875 C 93.527344 50.421875 93.550781 50.421875 93.578125 50.421875 C 93.742188 50.425781 93.910156 50.449219 94.078125 50.484375 C 94.332031 50.539062 94.585938 50.632812 94.84375 50.761719 C 95.101562 50.894531 95.359375 51.0625 95.621094 51.269531 C 95.816406 51.425781 96.015625 51.605469 96.214844 51.804688 C 97.128906 52.726562 98.042969 54.109375 98.925781 55.90625 C 100.519531 59.144531 102.007812 63.671875 103.351562 69.367188 C 105.546875 78.675781 106.808594 88.84375 107.007812 93.726562 C 106.410156 93.449219 105.492188 93.0625 104.300781 92.675781 Z M 85.160156 144.519531 C 79.957031 144.519531 75.722656 140.667969 75.722656 135.929688 L 75.722656 133.21875 C 75.722656 132.289062 76.558594 131.527344 77.582031 131.527344 C 78.609375 131.527344 79.445312 132.289062 79.445312 133.21875 L 79.445312 135.929688 C 79.445312 138.804688 82.003906 141.132812 85.160156 141.132812 C 88.316406 141.132812 90.875 138.804688 90.875 135.929688 L 90.875 125.980469 C 91.039062 126.03125 91.210938 126.058594 91.390625 126.058594 L 94.085938 126.058594 C 94.265625 126.058594 94.4375 126.03125 94.597656 125.980469 L 94.597656 135.929688 C 94.597656 140.667969 90.363281 144.519531 85.160156 144.519531 Z M 91.390625 124.632812 L 94.085938 124.632812 Z M 94.085938 123.203125 L 91.390625 123.203125 L 91.390625 92.621094 C 92.066406 92.585938 92.769531 92.566406 93.5 92.566406 C 93.695312 92.566406 93.890625 92.566406 94.085938 92.570312 Z M 58.550781 92.699219 C 57.726562 93.035156 57.03125 93.371094 56.5 93.652344 C 56.5 93.644531 56.5 93.636719 56.5 93.628906 C 56.503906 93.566406 56.507812 93.5 56.511719 93.4375 C 56.511719 93.433594 56.511719 93.429688 56.515625 93.421875 C 56.519531 93.363281 56.523438 93.304688 56.527344 93.242188 C 56.527344 93.238281 56.527344 93.230469 56.527344 93.222656 C 56.53125 93.164062 56.539062 93.105469 56.542969 93.046875 C 56.542969 93.039062 56.542969 93.03125 56.542969 93.027344 C 56.550781 92.96875 56.554688 92.910156 56.558594 92.851562 C 56.5625 92.84375 56.5625 92.835938 56.5625 92.828125 C 56.566406 92.769531 56.574219 92.710938 56.578125 92.652344 C 56.578125 92.644531 56.582031 92.640625 56.582031 92.632812 C 56.585938 92.570312 56.59375 92.511719 56.601562 92.449219 C 56.601562 92.445312 56.601562 92.441406 56.601562 92.4375 C 56.609375 92.371094 56.617188 92.308594 56.625 92.242188 C 57.507812 84.574219 61.90625 74.8125 68.328125 66.523438 C 75.011719 57.894531 82.582031 52.371094 89.628906 50.847656 C 88.632812 51.882812 87.65625 53.363281 86.730469 55.246094 C 85.089844 58.585938 83.5625 63.21875 82.191406 69.023438 C 79.949219 78.527344 78.675781 88.949219 78.488281 93.847656 C 77.722656 93.542969 76.570312 93.113281 75.199219 92.679688 C 73.726562 92.214844 72.300781 91.84375 70.964844 91.574219 C 69.277344 91.238281 67.71875 91.070312 66.339844 91.070312 C 64.949219 91.070312 63.503906 91.242188 62.042969 91.582031 C 60.882812 91.851562 59.707031 92.226562 58.550781 92.699219 Z M 93.378906 42.59375 C 93.390625 42.578125 93.429688 42.546875 93.5 42.546875 C 93.566406 42.546875 93.609375 42.578125 93.621094 42.59375 L 93.988281 48.925781 C 93.828125 48.925781 93.671875 48.925781 93.511719 48.925781 C 93.507812 48.925781 93.503906 48.925781 93.5 48.925781 C 93.492188 48.925781 93.488281 48.925781 93.480469 48.925781 C 93.328125 48.925781 93.171875 48.925781 93.015625 48.925781 Z M 57.640625 63.503906 C 64.957031 57.246094 74.167969 52.996094 83.839844 51.277344 C 82.382812 51.964844 80.917969 52.800781 79.457031 53.777344 C 77.273438 55.238281 75.089844 57.015625 72.976562 59.0625 C 70.953125 61.019531 68.992188 63.222656 67.144531 65.601562 C 63.554688 70.238281 60.511719 75.410156 58.351562 80.558594 C 56.457031 85.070312 55.324219 89.367188 55.039062 93.109375 C 55.035156 93.117188 55.035156 93.125 55.035156 93.132812 C 55.03125 93.179688 55.027344 93.226562 55.023438 93.273438 C 55.023438 93.292969 55.023438 93.308594 55.019531 93.328125 C 55.019531 93.371094 55.015625 93.410156 55.011719 93.453125 C 55.011719 93.476562 55.011719 93.5 55.007812 93.523438 C 55.007812 93.5625 55.003906 93.601562 55 93.640625 C 55 93.652344 55 93.664062 55 93.675781 C 53.5625 92.894531 50.980469 91.695312 48.585938 91.695312 C 46.21875 91.695312 43.652344 92.867188 42.195312 93.648438 C 42.589844 82.378906 48.039062 71.71875 57.640625 63.503906 Z M 57.640625 63.503906 " fill-opacity="1" fill-rule="nonzero"/></g><g clip-path="url(#0e2ba55ad9)"><g clip-path="url(#b675524430)"><g clip-path="url(#7f41485293)"><path fill="#f26cf9" d="M 148.847656 33.113281 L 33.113281 148.847656 L 38.144531 153.878906 L 153.878906 38.144531 Z M 148.847656 33.113281 " fill-opacity="1" fill-rule="nonzero"/></g></g></g></svg>